<?xml version="1.0" encoding="utf-8"?>
<!-- Generator: Adobe Illustrator 27.5.0, SVG Export Plug-In . SVG Version: 6.00 Build 0)  -->
<svg version="1.1" xmlns="http://www.w3.org/2000/svg" xmlns:xlink="http://www.w3.org/1999/xlink" x="0px" y="0px"
	 viewBox="0 0 750 500" style="enable-background:new 0 0 750 500;" xml:space="preserve">
<g id="BACKGROUND">
	<rect style="fill:#BCDDE8;" width="750" height="500"/>
</g>
<g id="OBJECTS">
	<ellipse style="opacity:0.1;" cx="120.142" cy="444.794" rx="63.06" ry="22.009"/>
	<ellipse style="opacity:0.1;" cx="281.21" cy="446.305" rx="64.867" ry="20.498"/>
	<ellipse style="opacity:0.1;" cx="624.835" cy="445.794" rx="58.025" ry="18.336"/>
	<ellipse style="opacity:0.1;" cx="449.243" cy="445.794" rx="67.534" ry="20.498"/>
	<g>
		<g>
			<g>
				<g>
					<path style="fill:#212E3B;" d="M103.791,419.661l0.637,17.072c0.04,1.062-0.776,1.961-1.837,2.025l-36.28,8.147
						c-1.615,0.111-2.347-1.978-1.016-2.899l26.46-21.755L103.791,419.661z"/>
					<polygon style="fill:#567798;" points="105.914,423.785 86.137,423.785 85.765,272.431 124.909,272.431 					"/>
				</g>
				<g>
					<path style="fill:#212E3B;" d="M135.757,419.661l-0.637,17.072c-0.04,1.062,0.776,1.961,1.837,2.025l36.28,8.147
						c1.615,0.111,2.347-1.978,1.016-2.899l-26.46-21.755L135.757,419.661z"/>
					<polygon style="fill:#567798;" points="133.634,423.785 153.412,423.785 153.783,272.431 117.731,272.431 					"/>
				</g>
			</g>
			<g>
				<g>
					
						<rect x="62.693" y="284.085" transform="matrix(0.9955 0.0945 -0.0945 0.9955 27.9004 -5.1856)" style="fill:#FFD1BD;" width="11.999" height="15.721"/>
					<g>
						<path style="fill:#E5F2F5;" d="M60.896,287.518l12.854-124.645c0.629-9.137,8.773-15.889,17.868-14.816l8.221,2.068
							L76.49,289.358L60.896,287.518z"/>
					</g>
				</g>
				<g>
					<path style="fill:#567798;" d="M92.57,263.755H36.64c-1.67,0-3.023,1.353-3.023,3.023v36.733c0,1.67,1.354,3.023,3.023,3.023
						h55.93c1.67,0,3.023-1.353,3.023-3.023v-36.733C95.594,265.108,94.24,263.755,92.57,263.755z"/>
					<rect x="39.933" y="268.771" style="opacity:0.15;" width="53.512" height="34.845"/>
					<rect x="38.811" y="267.722" style="fill:#EDEDED;" width="53.512" height="34.845"/>
					<path style="fill:#425C75;" d="M38.811,295.761L38.811,295.761c-1.058,0-1.924-0.866-1.924-1.923v-17.279
						c0-1.058,0.866-1.923,1.924-1.923l0,0c1.058,0,1.924,0.866,1.924,1.923v17.279C40.735,294.895,39.869,295.761,38.811,295.761z"
						/>
					<g>
						<path style="fill:#B4C2CC;" d="M47.117,298.989L47.117,298.989c-0.177,0-0.323-0.145-0.323-0.323V271.73
							c0-0.178,0.145-0.323,0.323-0.323l0,0c0.178,0,0.323,0.145,0.323,0.323v26.936C47.44,298.844,47.295,298.989,47.117,298.989z"
							/>
						<path style="fill:#B4C2CC;" d="M51.93,298.989L51.93,298.989c-0.178,0-0.323-0.145-0.323-0.323V271.73
							c0-0.178,0.145-0.323,0.323-0.323l0,0c0.177,0,0.323,0.145,0.323,0.323v26.936C52.252,298.844,52.107,298.989,51.93,298.989z"
							/>
						<path style="fill:#B4C2CC;" d="M56.742,298.989L56.742,298.989c-0.178,0-0.323-0.145-0.323-0.323V271.73
							c0-0.178,0.145-0.323,0.323-0.323l0,0c0.178,0,0.323,0.145,0.323,0.323v26.936C57.064,298.844,56.919,298.989,56.742,298.989z
							"/>
						<path style="fill:#B4C2CC;" d="M61.554,298.989L61.554,298.989c-0.178,0-0.323-0.145-0.323-0.323V271.73
							c0-0.178,0.145-0.323,0.323-0.323l0,0c0.178,0,0.323,0.145,0.323,0.323v26.936C61.877,298.844,61.731,298.989,61.554,298.989z
							"/>
						<path style="fill:#B4C2CC;" d="M66.366,298.989L66.366,298.989c-0.177,0-0.323-0.145-0.323-0.323V271.73
							c0-0.178,0.145-0.323,0.323-0.323l0,0c0.178,0,0.323,0.145,0.323,0.323v26.936C66.689,298.844,66.544,298.989,66.366,298.989z
							"/>
						<path style="fill:#B4C2CC;" d="M71.178,298.989L71.178,298.989c-0.178,0-0.323-0.145-0.323-0.323V271.73
							c0-0.178,0.145-0.323,0.323-0.323l0,0c0.178,0,0.323,0.145,0.323,0.323v26.936C71.501,298.844,71.356,298.989,71.178,298.989z
							"/>
						<path style="fill:#B4C2CC;" d="M75.99,298.989L75.99,298.989c-0.178,0-0.323-0.145-0.323-0.323V271.73
							c0-0.178,0.145-0.323,0.323-0.323l0,0c0.178,0,0.323,0.145,0.323,0.323v26.936C76.313,298.844,76.168,298.989,75.99,298.989z"
							/>
						<path style="fill:#B4C2CC;" d="M80.802,298.989L80.802,298.989c-0.178,0-0.323-0.145-0.323-0.323V271.73
							c0-0.178,0.145-0.323,0.323-0.323l0,0c0.178,0,0.323,0.145,0.323,0.323v26.936C81.125,298.844,80.98,298.989,80.802,298.989z"
							/>
						<path style="fill:#B4C2CC;" d="M85.673,294.456h-0.117c-0.145,0-0.264-0.119-0.264-0.264v-17.987
							c0-0.145,0.119-0.264,0.264-0.264h0.117c0.145,0,0.265,0.119,0.265,0.264v17.987
							C85.937,294.337,85.818,294.456,85.673,294.456z"/>
					</g>
				</g>
				<g>
					<path style="fill:#FFD1BD;" d="M76.03,306.112c0,3.661-1.014,4.57-2.265,4.57s-2.265-0.909-2.265-4.57s1.014-7.507,2.265-7.507
						S76.03,302.451,76.03,306.112z"/>
					<path style="fill:#FFD1BD;" d="M72.647,306.206c0,3.894-1.147,4.861-2.561,4.861c-1.415,0-2.561-0.967-2.561-4.861
						s1.147-7.986,2.561-7.986C71.5,298.22,72.647,302.311,72.647,306.206z"/>
					<path style="fill:#FFD1BD;" d="M67.999,306.326c-0.139,4.099-1.075,5.119-2.401,5.119c-1.326,0-2.4-1.018-2.4-5.119
						c0-4.101,1.075-8.41,2.4-8.41C66.924,297.915,68.177,301.098,67.999,306.326z"/>
					<path style="fill:#FFD1BD;" d="M63.792,306.206c0,3.894-1.147,4.861-2.561,4.861c-1.415,0-2.561-0.967-2.561-4.861
						s1.147-7.986,2.561-7.986C62.646,298.22,63.792,302.311,63.792,306.206z"/>
				</g>
			</g>
			<path style="fill:#E5F2F5;" d="M172.113,205.841l-3.046-2.99l-5.365-5.124l-10.484-11.011l-12.396-11.839
				c-7.656-7.312-8.578-18.846-1.721-24.669l0,0c6.711-5.699,17.587-3.074,23.581,5.195l9.764,13.468l9.147,12.617l9.703,12.529
				L172.113,205.841z"/>
			<g>
				<polygon style="opacity:0.1;" points="153.783,272.431 124.909,272.431 117.731,272.431 85.765,272.431 85.918,334.816 
					112.466,339.929 116.059,321.535 117.745,329.513 121.002,303.56 124.744,339.179 153.631,334.66 				"/>
				<path style="fill:#FFFFFF;" d="M116.059,307.033l3.887,28.37l42.309-6.619c4.846-88.987-9.375-180.62-9.375-180.62
					s-14.748-5.148-33.291-5.148c-18.543,0-33.073,5.254-33.073,5.254s-13.261,91.527-8.416,180.514l34.365,6.619L116.059,307.033z"
					/>
				<path style="fill:#425C75;" d="M101.843,144.491l18.575,38.869l16.814-38.885c-5.099-0.823-11.136-1.458-17.643-1.458
					C113.038,143.016,106.965,143.66,101.843,144.491z"/>
				<path style="fill:#62B4B5;" d="M120.419,183.36l4.253-9.836c-0.714-11.683-2.742-20.113-5.134-20.113
					c-2.225,0-4.135,7.294-4.966,17.715L120.419,183.36z"/>
				<path style="fill:#6ECACB;" d="M123.853,152.715c0,2.383-1.932,4.315-4.315,4.315c-2.383,0-4.315-1.932-4.315-4.315
					c0-2.383,1.932-4.315,4.315-4.315C121.921,148.4,123.853,150.332,123.853,152.715z"/>
				<rect x="108.079" y="106.198" style="fill:#EBC0AE;" width="22.327" height="42.791"/>
				<g>
					<path style="fill:#567798;" d="M108.079,139.327c0,0,4.62,6.875,11.163,9.662c0,0-4.056,1.282-5.733,7.575
						c0,0-6.057-1.163-11.665-12.073C101.843,144.491,103.779,140.695,108.079,139.327z"/>
					<path style="fill:#567798;" d="M130.405,139.327c0,0-4.62,6.875-11.163,9.662c0,0,4.056,1.282,5.733,7.575
						c0,0,6.057-1.163,11.665-12.073C136.641,144.491,134.705,140.695,130.405,139.327z"/>
				</g>
				<polygon style="fill:#E5F2F5;" points="101.843,144.491 97.001,170.894 108.309,173.903 104.912,195.395 120.142,219.037 
					120.419,183.36 				"/>
				<polygon style="fill:#DAE8ED;" points="120.142,219.037 120.419,183.36 137.233,144.474 139.472,173.903 128.63,176.37 
					134.58,197.115 				"/>
				<polygon style="fill:#E5F2F5;" points="103.416,270.962 76.379,263.485 76.379,258.187 103.416,265.665 				"/>
				<polygon style="fill:#E5F2F5;" points="136.203,270.962 163.24,263.485 163.24,258.187 136.203,265.665 				"/>
			</g>
			<g>
				
					<rect x="154.887" y="240.464" transform="matrix(0.866 0.5 -0.5 0.866 145.7179 -47.1742)" style="fill:#FFD1BD;" width="11.999" height="15.721"/>
				<path style="fill:#E5F2F5;" d="M172.847,209.817c0.14-0.339,0.466-1.39,0.466-1.39c0.125-0.462,0.209-0.753,0.094-1.056
					c-0.221-0.625-0.815-0.973-1.295-1.53l19.183-11.824c1.318,1.64,2.329,3.307,3.116,5.136c0.756,1.837,1.246,3.787,1.415,5.768
					c0.162,1.981,0.022,3.98-0.428,5.9c-0.457,1.939-1.215,3.668-2.227,5.438c-0.501,0.878-1.109,1.717-1.666,2.569l-1.632,2.432
					l-2.069,2.933l-4.138,5.865l-16.551,23.462l-13.35-8.268l13.631-25.271l3.408-6.318l1.704-3.159
					C172.508,210.504,172.774,209.994,172.847,209.817z"/>
				<path style="fill:#FFD1BD;" d="M153.783,250.667c0,0-4.44-0.016-7.892,6.214c-5.012,9.046-3.476,12.868-1.765,11.89
					c1.711-0.978,5.596-6.845,5.596-6.845l13.607-3.795C163.329,258.132,163.387,251.176,153.783,250.667z"/>
			</g>
		</g>
		<g>
			<g>
				<g>
					<path style="fill:#FFD1BD;" d="M143.272,100.205c0,0,3.689-7.49,8.435-4.966c4.946,2.63-1.467,25.83-10.366,17.326
						L143.272,100.205z"/>
					<g>
						<path style="fill:#D1AB9B;" d="M149.16,96.873c0.702-0.008,1.399,0.348,1.911,0.877c0.528,0.53,0.828,1.25,0.96,1.959
							c0.134,0.719,0.077,1.436-0.065,2.116c-0.16,0.677-0.423,1.318-0.796,1.9c-0.023-0.353-0.006-0.686,0.009-1.016
							c0.013-0.329,0-0.657,0.022-0.975c-0.02-0.637-0.012-1.262-0.141-1.849C150.872,98.702,150.304,97.651,149.16,96.873z"/>
					</g>
					<g>
						<path style="fill:#D1AB9B;" d="M146.453,103.242c0.476-0.196,1.117-0.189,1.608,0.284c0.244,0.228,0.374,0.568,0.414,0.871
							c0.043,0.306,0.01,0.604-0.081,0.917c-0.109,0.306-0.305,0.576-0.534,0.786c-0.247,0.186-0.503,0.335-0.776,0.406
							c-0.536,0.149-1.077,0.137-1.572-0.054c0.933-0.421,1.781-0.837,1.949-1.458c0.058-0.147,0.087-0.34,0.085-0.518
							c0.018-0.182-0.025-0.322-0.085-0.471C147.329,103.71,146.932,103.443,146.453,103.242z"/>
					</g>
					<path style="fill:#D1AB9B;" d="M143.272,100.205l-1.932,12.36c0.673,0.643,1.325,1.091,1.959,1.404
						c2.121-5.314,3.606-11.548,4.161-18.57C144.928,96.863,143.272,100.205,143.272,100.205z"/>
				</g>
				<g>
					<path style="fill:#FFD1BD;" d="M95.18,100.205c0,0-3.689-7.49-8.435-4.966c-4.946,2.63,1.467,25.83,10.367,17.326
						L95.18,100.205z"/>
					<g>
						<path style="fill:#D1AB9B;" d="M89.292,96.873c-1.144,0.778-1.712,1.829-1.901,3.013c-0.129,0.587-0.121,1.211-0.141,1.849
							c0.023,0.318,0.009,0.645,0.022,0.975c0.014,0.33,0.032,0.663,0.009,1.016c-0.372-0.582-0.636-1.223-0.796-1.9
							c-0.142-0.68-0.199-1.396-0.065-2.116c0.132-0.709,0.432-1.429,0.96-1.959C87.893,97.221,88.59,96.866,89.292,96.873z"/>
					</g>
					<g>
						<path style="fill:#D1AB9B;" d="M91.999,103.242c-0.478,0.201-0.875,0.468-1.008,0.764c-0.06,0.15-0.103,0.29-0.085,0.471
							c-0.002,0.178,0.027,0.37,0.085,0.518c0.168,0.621,1.016,1.037,1.949,1.458c-0.495,0.191-1.036,0.203-1.572,0.054
							c-0.273-0.071-0.529-0.22-0.776-0.406c-0.23-0.21-0.425-0.481-0.534-0.786c-0.09-0.313-0.124-0.612-0.081-0.917
							c0.041-0.303,0.17-0.643,0.414-0.871C90.882,103.053,91.523,103.046,91.999,103.242z"/>
					</g>
					<path style="fill:#D1AB9B;" d="M95.18,100.205l1.932,12.36c-0.673,0.643-1.325,1.091-1.959,1.404
						c-2.121-5.314-3.606-11.548-4.161-18.57C93.525,96.863,95.18,100.205,95.18,100.205z"/>
				</g>
			</g>
			<path style="fill:#FFD1BD;" d="M119.226,66.557c0,0,25.177,0,26.045,25.511s-12.154,43.464-26.045,43.464
				c-13.891,0-26.914-17.952-26.045-43.464C94.049,66.557,119.226,66.557,119.226,66.557z"/>
			<g>
				<path style="fill:#425C75;" d="M93.881,104.378c0,0,2.638-7.124,4.342-22.771c0,0,18.495,11.449,39.485,0
					c0,0,2.247,16.981,6.212,26.3c0,0,5.11-9.635,2.184-29.735c-2.926-20.099-45.446-27.478-59.296,1.908c0,0,0,1.111,3.766,3.716
					C90.574,83.796,88.726,90.766,93.881,104.378z"/>
				<path style="opacity:0.05;fill:#FFFFFF;" d="M99.94,70.513c5.182,2.791,11.649,4.451,18.668,4.451
					c6.9,0,13.27-1.602,18.407-4.308C127.829,63.468,111.777,62.02,99.94,70.513z"/>
			</g>
			<g>
				<path style="fill:#D1AB9B;" d="M110.132,107.272c-0.705-0.593-1.503-0.921-2.323-1.146c-0.824-0.211-1.671-0.315-2.519-0.31
					c-0.849-0.004-1.696,0.1-2.519,0.312c-0.82,0.226-1.618,0.553-2.324,1.145c0.381-0.857,1.201-1.487,2.063-1.87
					c0.872-0.396,1.831-0.561,2.78-0.574c0.949,0.014,1.908,0.179,2.78,0.575C108.93,105.787,109.751,106.415,110.132,107.272z"/>
			</g>
			<g>
				<path style="fill:#D1AB9B;" d="M137.014,107.272c-0.705-0.593-1.503-0.921-2.323-1.146c-0.824-0.211-1.671-0.315-2.52-0.31
					c-0.849-0.004-1.695,0.1-2.519,0.312c-0.82,0.226-1.617,0.553-2.324,1.145c0.381-0.857,1.201-1.487,2.063-1.87
					c0.872-0.396,1.831-0.561,2.78-0.574c0.949,0.014,1.908,0.179,2.78,0.575C135.812,105.787,136.633,106.415,137.014,107.272z"/>
			</g>
			<g>
				<path style="fill:#D1AB9B;" d="M115.849,95.757c0.012,2.034-0.016,4.062-0.084,6.084c-0.052,2.022-0.146,4.043-0.172,6.053
					c-0.028,1.002-0.032,2.015,0.043,2.977c0.028,0.942,0.472,1.705,1.257,2.149c0.786,0.427,1.786,0.507,2.725,0.3
					c0.955-0.179,1.834-0.707,2.528-1.45c-1.043,1.739-3.484,2.761-5.599,1.838c-0.508-0.247-0.996-0.613-1.307-1.121
					c-0.308-0.489-0.489-1.094-0.533-1.615c-0.112-1.056-0.111-2.073-0.1-3.095C114.714,103.8,115.119,99.761,115.849,95.757z"/>
			</g>
			<g>
				<path style="fill:#D1AB9B;" d="M113.812,123.261c1.6,0.166,3.191,0.196,4.762,0.156c1.567-0.072,3.134-0.207,4.621-0.629
					c1.49-0.398,2.893-1.041,4.131-1.949c1.23-0.935,2.152-2.203,2.97-3.597c-0.456,1.529-1.216,3.061-2.473,4.186
					c-1.242,1.12-2.78,1.873-4.374,2.314c-1.603,0.432-3.26,0.529-4.883,0.443C116.941,124.093,115.332,123.8,113.812,123.261z"/>
			</g>
			<g>
				<path style="fill:#283847;" d="M105.29,102.529L105.29,102.529c-1.375,0-2.5-1.125-2.5-2.5v-2.983c0-1.375,1.125-2.5,2.5-2.5
					l0,0c1.375,0,2.5,1.125,2.5,2.5v2.983C107.79,101.404,106.665,102.529,105.29,102.529z"/>
				<path style="fill:#BCDDE8;" d="M104.582,98.814L104.582,98.814c-0.389,0-0.707-0.318-0.707-0.707v-0.844
					c0-0.389,0.318-0.707,0.707-0.707l0,0c0.389,0,0.707,0.318,0.707,0.707v0.844C105.29,98.496,104.971,98.814,104.582,98.814z"/>
			</g>
			<g>
				<path style="fill:#283847;" d="M132.171,102.529L132.171,102.529c-1.375,0-2.5-1.125-2.5-2.5v-2.983c0-1.375,1.125-2.5,2.5-2.5
					l0,0c1.375,0,2.5,1.125,2.5,2.5v2.983C134.672,101.404,133.547,102.529,132.171,102.529z"/>
				<path style="fill:#BCDDE8;" d="M131.464,98.814L131.464,98.814c-0.389,0-0.707-0.318-0.707-0.707v-0.844
					c0-0.389,0.318-0.707,0.707-0.707l0,0c0.389,0,0.707,0.318,0.707,0.707v0.844C132.171,98.496,131.853,98.814,131.464,98.814z"/>
			</g>
			<g>
				<path style="fill:#425C75;" d="M99.828,91.774c0.449-0.923,1.206-1.625,2.067-2.169c0.871-0.531,1.904-0.864,2.977-0.899
					c1.07-0.052,2.174,0.23,3.058,0.801c0.909,0.534,1.579,1.357,1.993,2.268c-0.983-0.312-1.779-0.684-2.611-0.844
					c-0.805-0.214-1.585-0.286-2.374-0.252C103.35,90.717,101.744,91.206,99.828,91.774z"/>
			</g>
			<g>
				<path style="fill:#425C75;" d="M127.124,91.774c0.449-0.923,1.206-1.625,2.067-2.169c0.871-0.531,1.904-0.864,2.977-0.899
					c1.07-0.052,2.174,0.23,3.058,0.801c0.908,0.534,1.579,1.357,1.992,2.268c-0.983-0.312-1.779-0.684-2.611-0.844
					c-0.805-0.214-1.585-0.286-2.374-0.252C130.646,90.717,129.04,91.206,127.124,91.774z"/>
			</g>
		</g>
	</g>
	<g>
		<g>
			<g>
				<g>
					<path style="fill:#212E3B;" d="M467.643,425.806l-0.662,17.728c-0.041,1.103,0.806,2.037,1.907,2.103l40.791,3.268
						c1.677,0.115,2.437-2.054,1.055-3.011l-30.593-17.399L467.643,425.806z"/>
					<polygon style="fill:#6AAEB0;" points="465.438,430.089 485.976,430.089 463.556,247.656 427.898,247.656 					"/>
				</g>
				<g>
					<path style="fill:#212E3B;" d="M427.178,425.806l0.662,17.728c0.041,1.103-0.806,2.037-1.907,2.103l-35.599,0.152
						c-1.677,0.115-2.437-2.054-1.055-3.011l25.401-14.284L427.178,425.806z"/>
					<polygon style="fill:#6AAEB0;" points="429.382,429.05 408.844,429.05 400.108,247.656 438.193,247.656 					"/>
				</g>
			</g>
			<path style="opacity:0.1;" d="M467.314,278.237l-3.758-30.581h-25.363h-10.295h-27.79l1.165,24.193
				c10.669,4.451,23.324,7.407,34.398,8.236C446.131,280.868,457.346,280.466,467.314,278.237z"/>
		</g>
		<path style="fill:#6CB1B3;" d="M374.678,208.357c-0.137-0.922-0.22-1.828-0.207-2.828c-0.029-1.956,0.312-4.151,0.942-6.344
			l0.835-3.302l0.42-1.661l0.289-1.194l0.855-3.709l3.418-14.837l3.863-14.766c1.619-7.026,10.893-12.75,17.097-12.732l2.089,17.717
			l-1.774,15.769l-4.823,14.442l-1.206,3.61l-0.151,0.451l-0.038,0.113c-0.01,0.027-0.009,0.019-0.015,0.031l-0.023,0.041
			l-0.095,0.169l-0.195,0.358l-0.414,0.796c-0.148,0.28-0.297,0.59-0.317,0.92L374.678,208.357z"/>
		<g>
			<polygon style="fill:#FFD1BD;" points="515.98,94.79 515.252,107.463 504.033,106.695 504.76,94.022 			"/>
			<g>
				<path style="fill:#6CB1B3;" d="M516.778,101.062l-0.828,37.25l-0.207,9.312l-0.104,4.656l-0.066,2.536l-0.166,4.031
					l-0.171,1.997c-0.1,0.641-0.217,1.276-0.341,1.909c-0.14,0.614-0.333,1.205-0.506,1.807c-0.222,0.584-0.429,1.178-0.711,1.74
					c-0.513,1.15-1.213,2.215-1.971,3.229c-0.789,0.994-1.683,1.907-2.658,2.729c-1.988,1.592-4.314,2.784-6.788,3.377
					c-0.612,0.18-1.242,0.251-1.865,0.371c-0.63,0.051-1.259,0.129-1.896,0.152c-0.652,0.002-1.312-0.014-1.973-0.037l-2.037-0.237
					l-3.121-0.525l-1.569-0.264l-0.882-0.131l-3.489-0.516l-6.978-1.032l-13.957-2.063l-27.913-4.126l4.758-24.563l27.435,6.596
					l13.717,3.298l6.859,1.649l3.429,0.824l0.848,0.204l0.161,0.071l0.338,0.146c0.308,0.118,0.638,0.3,1.004,0.348
					c0.364,0.056,0.745-0.001,1.085-0.156c0.336-0.159,0.629-0.417,0.814-0.744c0.192-0.327,0.236-0.706,0.344-1.098l0.145-0.612
					l0.018-0.082l0.032-0.289l0.065-0.579l0.129-1.157l0.518-4.629l1.036-9.257l4.143-37.028L516.778,101.062z"/>
			</g>
			<path style="fill:#FFD1BD;" d="M520.253,87.132c0-0.002,0-0.004,0.001-0.006c0.895-6.962,0.912-15.618-0.901-15.813
				c-1.315-0.141-2.286,5.928-2.722,9.286c-0.05-0.013-0.1-0.024-0.149-0.04c0.145-3.904,0.23-11.658-1.369-11.983
				c-1.652-0.336-2.696,7.678-3.087,11.355c-0.033,0-0.066,0.004-0.098,0c-0.045-0.006-0.093-0.021-0.14-0.035
				c-0.164-3.943-0.699-12.869-2.182-12.84c-1.541,0.03-2.29,9.108-2.519,12.559c-0.096-0.019-0.193-0.042-0.309-0.087
				c-0.599-3.498-2.279-12.313-3.89-11.569c-2.004,0.927-0.657,15.282-0.657,15.282l0,0c-0.261,2.466-0.117,5.11-0.117,5.11
				c-7.863-5.135-9.362-2.08-8.518-1.05c0.844,1.03,3.69,3.973,5.547,6.239c1.856,2.266,5.353,3.751,9.161,4.277
				c8.948,1.236,11.358-5.707,11.948-10.672l0,0C520.252,87.141,520.252,87.136,520.253,87.132z"/>
		</g>
		<g>
			<path style="fill:#75C1C2;" d="M393.052,260.89c11.048,5.762,26.587,9.002,39.724,9.002c13.382,0,28.101-2.324,39.303-8.289
				c-2.138-56.613-11.604-114.509-11.604-114.509s-12.762-5.456-29.047-5.456c-16.286,0-29.239,5.346-29.239,5.346
				S395.431,204.072,393.052,260.89z"/>
			<path style="fill:#6CB1B3;" d="M431.428,141.638c-9.297,0-17.503,1.742-22.838,3.237c6.013,12.769,24.461,21.549,24.461,21.549
				s15.402-9.312,21.193-21.455C448.965,143.437,440.781,141.638,431.428,141.638z"/>
			<path style="fill:#EBC0AE;" d="M431.428,141.638c-7.546,0-14.373,1.148-19.531,2.38c5.256,11.164,20.976,18.841,20.976,18.841
				s13.136-8.126,18.141-18.758C445.885,142.831,439.042,141.638,431.428,141.638z"/>
			
				<rect x="420.273" y="103.403" transform="matrix(-1 -1.224647e-16 1.224647e-16 -1 863.7308 251.2434)" style="fill:#EBC0AE;" width="23.185" height="44.437"/>
		</g>
		<g>
			<g>
				<path style="fill:#567798;" d="M463.445,239.631l-37.234,1.882c-0.849,0.043-1.572-0.611-1.615-1.459l-2.691-53.259
					c-0.043-0.849,0.61-1.572,1.459-1.615l37.234-1.882c0.849-0.043,1.572,0.611,1.615,1.459l2.691,53.259
					C464.947,238.865,464.294,239.588,463.445,239.631z"/>
				<path style="opacity:0.1;" d="M462.213,184.758c-0.043-0.849-0.766-1.502-1.615-1.459l-37.234,1.882
					c-0.849,0.043-1.502,0.766-1.459,1.615l2.691,53.259c0.043,0.849,0.766,1.502,1.615,1.459l37.234-1.882
					c0.849-0.043,1.502-0.766,1.459-1.615L462.213,184.758z M461.189,237.268l-32.972,1.666c-0.763,0.039-1.414-0.549-1.452-1.313
					l-2.457-48.626c-0.039-0.763,0.549-1.414,1.312-1.452l32.972-1.666c0.763-0.039,1.414,0.549,1.452,1.313l2.457,48.626
					C462.54,236.579,461.952,237.229,461.189,237.268z"/>
			</g>
			<polygon style="fill:#FFD1BD;" points="450.204,216.872 436.863,217.538 436.403,205.713 449.744,205.047 			"/>
			<path style="fill:#6CB1B3;" d="M395.227,201.401c-0.07,0.657,0.267,1.331,0.825,1.616c0.561,0.231,1.213,0.256,1.93,0.392
				l0.553,0.082c0.069,0.006,0.047,0.014,0.19,0.02l0.476,0.015l0.951,0.029l3.805,0.118l7.609,0.236l30.437,0.943l0.227,13.342
				l-30.387,1.976l-7.597,0.494l-3.798,0.247l-0.95,0.062l-1.235,0.067l-3.249,0.146c-2.165,0.086-4.419,0.288-6.448,0.015
				c-0.976-0.161-1.976-0.307-2.836-0.567c-0.903-0.21-1.762-0.526-2.629-0.952c-1.733-0.804-3.327-2.043-4.668-3.502
				c-1.318-1.484-2.371-3.223-3.021-5.055c-0.348-0.912-0.559-1.846-0.733-2.767L395.227,201.401z"/>
			<path style="fill:#FFD1BD;" d="M446.262,209.679c0.063-4.081,1.242-7.972,3.52-10.249c2.278-2.278,5.176-5.694,6.212-6.729
				c1.035-1.035,4.659,0.104,0,9.11c0,0,9.364-1.695,10.56,0.518c0.506,0.937,0.598,1.568,0.145,2.585
				c-0.764,1.713,0.323,1.526,0.566,3.088c0.229,1.469-0.504,2.301-0.504,2.922c0,0.621,0.693,1.295,0.7,2.139
				c0.011,1.344-1.01,2.313-0.803,3.555c0.207,1.242,0.803,3.106-1.967,3.624C461.84,220.773,446.055,223.034,446.262,209.679z"/>
		</g>
		<g>
			<g>
				<path style="fill:#FFD1BD;" d="M407.945,102.334c0,0-5.803-7.897-12.025-3.014c-6.484,5.089,4.644,31.409,15.926,17.588
					L407.945,102.334z"/>
				<g>
					<path style="fill:#D1AB9B;" d="M399.565,100.397c-1.271,1.275-2.048,2.692-2.316,4.239c-0.13,0.777-0.121,1.58-0.067,2.409
						c0.035,0.413,0.108,0.829,0.144,1.261c0.076,0.424,0.158,0.852,0.193,1.313c-0.284-0.35-0.522-0.734-0.764-1.123
						c-0.179-0.413-0.388-0.826-0.512-1.27c-0.264-0.886-0.34-1.844-0.202-2.796c0.181-0.942,0.582-1.856,1.211-2.569
						C397.867,101.145,398.673,100.6,399.565,100.397z"/>
				</g>
				<g>
					<path style="fill:#D1AB9B;" d="M403.912,107.271c-0.544,0.413-1.018,0.836-1.253,1.281c-0.106,0.227-0.173,0.431-0.171,0.649
						c0.003,0.21,0.042,0.477,0.123,0.644c0.119,0.342,0.486,0.574,1.049,0.735c0.553,0.143,1.185,0.218,1.866,0.313
						c-0.57,0.4-1.239,0.617-1.971,0.637c-0.37,0.011-0.757-0.066-1.152-0.235c-0.391-0.194-0.731-0.558-0.92-0.972
						c-0.157-0.433-0.197-0.82-0.145-1.253c0.084-0.423,0.278-0.829,0.572-1.108C402.487,107.395,403.226,107.206,403.912,107.271z"
						/>
				</g>
				<path style="fill:#D1AB9B;" d="M401.735,97.942c1.38,7.934,5.552,14.713,8.9,20.292c0.403-0.395,0.806-0.832,1.21-1.327
					l-3.901-14.573C407.945,102.334,405.343,98.813,401.735,97.942z"/>
			</g>
			<path style="fill:#FFD1BD;" d="M441.553,70.596c19.056,6.977,16.47,41.423,10.344,55.778
				c-6.125,14.355-29.345,16.403-42.889-9.396C395.465,91.179,412.448,59.938,441.553,70.596z"/>
			<g>
				<path style="fill:#D1AB9B;" d="M438.404,97.942c0.703,1.289,1.446,2.546,2.203,3.788c0.76,1.24,1.561,2.449,2.409,3.613
					c0.843,1.169,1.775,2.264,2.8,3.231c1.025,0.949,2.187,1.806,3.501,2.084l0.035,0.007c0.226,0.048,0.371,0.27,0.323,0.497
					c-0.024,0.115-0.095,0.21-0.188,0.269c-1.07,0.669-2.169,1.23-3.337,1.668c-1.162,0.418-2.403,0.744-3.635,0.65
					c0.61-0.077,1.194-0.234,1.764-0.429c0.57-0.196,1.111-0.467,1.652-0.726c1.067-0.545,2.11-1.176,3.068-1.865l0.171,0.772
					c-1.603-0.254-2.918-1.19-4.024-2.199c-1.105-1.031-2.066-2.191-2.881-3.43c-0.827-1.232-1.561-2.518-2.205-3.843
					C439.419,100.704,438.857,99.34,438.404,97.942z"/>
			</g>
			<path style="fill:none;stroke:#283847;stroke-width:1.25;stroke-linecap:round;stroke-linejoin:round;stroke-miterlimit:10;" d="
				M421.38,102.093v-2.212c0-2.346,1.92-4.266,4.266-4.266l0,0c2.346,0,4.266,1.92,4.266,4.266v2.212"/>
			<path style="fill:none;stroke:#283847;stroke-width:1.25;stroke-linecap:round;stroke-linejoin:round;stroke-miterlimit:10;" d="
				M447.787,102.138v-1.981c0-2.178,1.334-3.96,2.965-3.96h0c1.631,0,2.965,1.782,2.965,3.96v1.981"/>
			<path style="fill:#FFFFFF;" d="M448.692,118.155c-9.869,1.103-16.944-0.142-19.414-0.694c-0.401-0.09-0.723,0.32-0.543,0.689
				c1.151,2.354,4.673,8.37,10.516,8.111c5.375-0.238,8.95-4.174,9.97-7.471C449.326,118.449,449.046,118.115,448.692,118.155z"/>
			<g>
				<path style="fill:#A87366;" d="M419.381,92.811c0.69-0.933,1.639-1.598,2.66-2.115c1.03-0.502,2.174-0.813,3.356-0.878
					c1.18-0.086,2.402,0.176,3.474,0.674c1.092,0.48,1.962,1.353,2.545,2.319c-1.123-0.323-2.048-0.71-3.042-0.827
					c-0.968-0.15-1.91-0.238-2.88-0.169C423.552,91.909,421.609,92.365,419.381,92.811z"/>
			</g>
			<g>
				<path style="fill:#A87366;" d="M446.697,92.811c0.282-0.843,0.854-1.502,1.539-2.037c0.693-0.52,1.56-0.889,2.509-0.956
					c0.946-0.09,1.956,0.222,2.677,0.794c0.751,0.551,1.201,1.357,1.386,2.199c-0.837-0.317-1.47-0.671-2.126-0.811
					c-0.631-0.177-1.201-0.24-1.806-0.187C449.66,91.887,448.357,92.356,446.697,92.811z"/>
			</g>
			<path style="fill:#A87366;" d="M405.712,108.652c0,0,6.663-1.927,3.878-20.933c0,0,3.83,1.804,6.717,0.722
				c2.887-1.083-0.722-8.42-0.722-8.42s21.666,8.234,39.222,7.485c0,0,2.76-14.943-17.088-22.401
				C419.498,58.257,385.633,73.404,405.712,108.652z"/>
			<g>
				<circle style="fill:none;stroke:#FFFFFF;stroke-width:0.75;stroke-miterlimit:10;" cx="425.646" cy="100.397" r="7.007"/>
				<path style="fill:none;stroke:#FFFFFF;stroke-width:0.75;stroke-miterlimit:10;" d="M457.07,100.397
					c0,3.49-2.829,6.319-6.318,6.319c-3.49,0-6.319-2.829-6.319-6.319s2.829-6.318,6.319-6.318
					C454.242,94.078,457.07,96.907,457.07,100.397z"/>
				<path style="fill:none;stroke:#FFFFFF;stroke-width:0.75;stroke-miterlimit:10;" d="M432.653,100.397c0,0,7.669-4.403,11.781,0"
					/>
				
					<line style="fill:none;stroke:#FFFFFF;stroke-width:0.75;stroke-miterlimit:10;" x1="418.639" y1="100.397" x2="400.958" y2="97.774"/>
			</g>
			<path style="opacity:0.05;fill:#FFFFFF;" d="M437.719,67.533c-8.073-3.034-19.215-1.746-27.378,3.691
				c5.063,2.494,11.426,3.984,18.342,3.984c6.392,0,12.31-1.273,17.168-3.434C443.684,70.223,441.02,68.773,437.719,67.533z"/>
		</g>
	</g>
	<g>
		<g>
			<g>
				<g>
					<path style="fill:#212E3B;" d="M294.845,427.264l-1.78,16.647c-0.111,1.036,0.677,1.915,1.775,1.98l40.585,3.168
						c1.67,0.112,2.567-1.923,1.245-2.825l-29.496-16.415L294.845,427.264z"/>
					<polygon style="fill:#6AAEB0;" points="292.371,431.28 312.909,431.331 310.996,251.948 275.338,251.86 					"/>
				</g>
				<g>
					<path style="fill:#212E3B;" d="M265.209,426.678l0.404,16.652c0.025,1.036-0.834,1.951-1.936,2.061l-35.563,1.678
						c-1.677,0.181-2.405-1.828-1.01-2.787l25.581-14.535L265.209,426.678z"/>
					<polygon style="fill:#6AAEB0;" points="267.364,429.635 246.848,430.521 247.548,251.792 285.633,251.886 					"/>
				</g>
			</g>
			<path style="opacity:0.1;" d="M281.066,282.334c9.958,0.728,20.663,0.422,30.423-1.416l-0.492-28.969l0-0.001l-25.363-0.062
				l-38.085-0.093l-0.231,23.163C257.54,278.915,270.436,281.557,281.066,282.334z"/>
		</g>
		<g>
			<g>
				<g>
					<g>
						<path style="fill:#F7CAB8;" d="M220.934,210.275c-0.476-0.784-0.692-1.677-0.611-2.688
							c1.292-16.174,12.659-30.07,12.659-30.845l17.595,5.946c0,0-7.76,13.707-7.824,14.463L220.934,210.275z"/>
						<path style="fill:#6CB1B3;" d="M257.763,151.81c0,0-20.136,4.298-33.311,25.86c0,0,12.038,14.336,18.656,18.363l9.245-12.673
							L257.763,151.81z"/>
						<path style="fill:#FFD1BD;" d="M337.586,210.275c0.476-0.784,0.692-1.677,0.611-2.688
							c-1.292-16.174-12.659-30.07-12.659-30.845l-17.595,5.946c0,0,9.069,13.688,7.824,14.463L337.586,210.275z"/>
						<path style="fill:#6CB1B3;" d="M300.757,151.81c0,0,20.135,4.298,33.311,25.86c0,0-12.037,14.336-18.656,18.363l-9.245-12.673
							L300.757,151.81z"/>
					</g>
					<path style="fill:#75C1C2;" d="M279.403,143.736c0,0,13.596,5.096,21.64,8.074c5.398,12.416,11.078,22.439,10.914,37.259
						c-0.165,14.819-9.066,24.064-1.839,44.433c7.227,20.369,7.396,35.894,7.396,35.894s-14.32,5.606-38.111,5.606
						c-23.791,0-38.111-4.606-38.111-4.606s0.169-16.525,7.396-36.894c7.227-20.369-1.674-29.614-1.839-44.433
						c-0.165-14.819,5.516-24.843,10.914-37.259C265.807,148.832,279.403,143.736,279.403,143.736z"/>
					<path style="fill:#6CB1B3;" d="M299.154,151.11c-8.112-3.011-19.751-7.374-19.751-7.374s-11.639,4.362-19.751,7.374
						c3.613,8.702,11.098,14.683,19.751,14.683C288.056,165.793,295.54,159.812,299.154,151.11z"/>
					<path style="fill:#EBC0AE;" d="M279.403,143.736c0,0-9.551,3.58-17.38,6.493c3.277,7.506,9.828,12.63,17.38,12.63
						c7.552,0,14.102-5.124,17.379-12.63C288.954,147.316,279.403,143.736,279.403,143.736z"/>
				</g>
				<g>
					<path style="fill:none;stroke:#425C75;stroke-width:2;stroke-miterlimit:10;" d="M260.545,169.314
						c-5.492-23.174,7.265-23.174,18.858-23.174c0,0,28.917-3.089,17.38,27.782"/>
					<path style="fill:none;stroke:#425C75;stroke-width:2;stroke-miterlimit:10;" d="M261.214,197.493
						c0,0-10.472-24.331-0.669-28.179c12.14-4.766,20.913,24.195,20.913,24.195"/>
					<g>
						<g>
							<path style="fill:#BCDDE8;" d="M264.839,197.543l-2.374,1.002c-0.21,0.089-0.455-0.011-0.543-0.221l-0.801-1.898
								c-0.089-0.21,0.011-0.455,0.221-0.543l2.374-1.002c0.732-0.309,1.584,0.037,1.893,0.77l0,0
								C265.917,196.382,265.571,197.234,264.839,197.543z"/>
							<path style="fill:#283847;" d="M262.473,199.628L262.473,199.628c-0.517,0.218-1.119-0.026-1.337-0.544l-1.108-2.627
								c-0.218-0.517,0.026-1.119,0.543-1.337l0,0c0.517-0.218,1.119,0.026,1.337,0.544l1.108,2.627
								C263.234,198.809,262.99,199.41,262.473,199.628z"/>
						</g>
						<g>
							<path style="fill:#BCDDE8;" d="M277.86,192.012l2.374-1.002c0.21-0.089,0.455,0.011,0.543,0.221l0.801,1.898
								c0.089,0.21-0.011,0.455-0.221,0.543l-2.374,1.002c-0.732,0.309-1.584-0.037-1.893-0.77l0,0
								C276.781,193.173,277.128,192.321,277.86,192.012z"/>
							<path style="fill:#283847;" d="M280.226,189.927L280.226,189.927c0.517-0.218,1.119,0.026,1.337,0.544l1.108,2.627
								c0.218,0.517-0.026,1.119-0.543,1.337l0,0c-0.517,0.218-1.119-0.026-1.337-0.544l-1.108-2.627
								C279.465,190.747,279.709,190.145,280.226,189.927z"/>
						</g>
					</g>
					<g>
						<path style="fill:#425C75;" d="M301.753,173.921c0,2.745-2.225,4.97-4.97,4.97c-2.745,0-4.97-2.225-4.97-4.97
							c0-2.745,2.225-4.97,4.97-4.97C299.527,168.951,301.753,171.176,301.753,173.921z"/>
						<path style="fill:#BCDDE8;" d="M300.753,173.921c0,2.193-1.778,3.971-3.971,3.971c-2.193,0-3.971-1.778-3.971-3.971
							c0-2.193,1.778-3.971,3.971-3.971C298.975,169.951,300.753,171.729,300.753,173.921z"/>
						<path style="fill:#283847;" d="M299.736,173.921c0,1.631-1.322,2.954-2.954,2.954c-1.631,0-2.954-1.322-2.954-2.954
							c0-1.631,1.322-2.954,2.954-2.954C298.413,170.968,299.736,172.29,299.736,173.921z"/>
					</g>
				</g>
			</g>
			<g>
				<path style="fill:#F7CAB8;" d="M220.934,210.275c7.137,11.766,74.322-0.738,74.322-0.738l-3.728-15.227
					c0,0-47.53,3.617-48.776,2.842L220.934,210.275z"/>
				<path style="fill:#FFD1BD;" d="M337.586,210.275c-7.138,11.766-75.55-7.924-75.55-7.924l-2.368-13.989
					c0,0,54.854,9.565,56.099,8.79L337.586,210.275z"/>
				<path style="fill:#FFD1BD;" d="M259.668,188.362c0,0-7.363-2.045-11.818-1.459c-4.455,0.586-11.372-0.809-11.724,0.703
					c-0.352,1.512,2.806,3.634,8.379,4.103c0,0,0.104,0.41-1.891,5.525c13.134,1.259,19.422,5.116,19.422,5.116L259.668,188.362z"/>
				<path style="fill:#F7CAB8;" d="M320.108,192.386c-0.973-0.539-2.319-0.093-3.598,0.643c1.588-1.442,2.865-2.995,1.916-3.645
					c-1.175-0.804-3.738,0.796-5.634,2.231c1.402-1.255,2.928-2.838,2.928-3.795c0-1.785-1.918-1.12-5.214,1.002
					c0.76-0.995,1.255-1.969,0.957-2.609c-0.88-1.89-9.26,5.53-13.638,8.553c2.958,1.63,18.51,2.726,18.51,2.726
					S322.596,193.763,320.108,192.386z"/>
			</g>
		</g>
		<g>
			<g>
				<path style="fill:#425C75;" d="M260.778,84.387c-5.295-2.414-11.368,1.245-11.697,7.055c-0.417,7.347-0.868,17.351-1.004,27.969
					c-0.273,21.224-4.897,30.307-19.478,29.118c0,0,9.706-5.292,6.994-26.488c-2.712-21.196-12.626-56.262,8.977-57.704
					c21.603-1.441,20.026,21.79,20.026,21.79L260.778,84.387z"/>
				<path style="fill:#324659;" d="M253.63,84.534c2.128-1.073,4.717-1.256,7.148-0.147l3.817,1.74c0,0,0.451-6.738-2.502-12.731
					C257.668,76.236,255.069,80.233,253.63,84.534z"/>
			</g>
			<path style="fill:#425C75;" d="M250.963,96.769c0,0-4.625,49.371,28.44,49.371c33.065,0,28.183-47.465,28.183-47.465
				L250.963,96.769z"/>
			
				<rect x="267.81" y="108.375" transform="matrix(-1 -1.224647e-16 1.224647e-16 -1 558.8053 261.1874)" style="fill:#EBC0AE;" width="23.185" height="44.437"/>
			<g>
				<path style="fill:#FFD1BD;" d="M256.779,111.5c0,0-3.712-7.388-9.671-4.286c-6.21,3.233-0.748,26.631,10.794,16.904
					L256.779,111.5z"/>
				<g>
					<path style="fill:#D1AB9B;" d="M250.015,108.648c-1.248,0.862-2.12,1.907-2.579,3.144c-0.223,0.623-0.34,1.287-0.415,1.982
						c-0.033,0.347-0.031,0.703-0.064,1.067c0.001,0.362,0.008,0.729-0.029,1.118c-0.186-0.331-0.33-0.684-0.474-1.042
						c-0.089-0.368-0.204-0.743-0.241-1.129c-0.092-0.775-0.007-1.583,0.251-2.352c0.296-0.755,0.774-1.449,1.407-1.939
						C248.492,109,249.245,108.678,250.015,108.648z"/>
				</g>
				<g>
					<path style="fill:#D1AB9B;" d="M252.654,114.974c-0.517,0.261-0.98,0.54-1.248,0.874c-0.261,0.312-0.307,0.711-0.233,1.06
						c0.053,0.294,0.336,0.546,0.786,0.76c0.444,0.2,0.961,0.357,1.516,0.539c-0.537,0.247-1.127,0.327-1.74,0.239
						c-0.31-0.044-0.621-0.16-0.927-0.355c-0.298-0.214-0.539-0.56-0.643-0.938c-0.069-0.388-0.051-0.72,0.061-1.076
						c0.134-0.343,0.361-0.653,0.651-0.839C251.448,114.857,252.091,114.816,252.654,114.974z"/>
				</g>
				<path style="fill:#D1AB9B;" d="M252.205,106.945c-0.015,6.758,2.491,12.979,4.482,18.087c0.397-0.266,0.802-0.567,1.215-0.915
					l-1.123-12.618C256.779,111.5,255.111,108.204,252.205,106.945z"/>
			</g>
			<g>
				<path style="fill:#FFD1BD;" d="M301.435,111.5c0,0,3.712-7.388,9.671-4.286c6.21,3.233,0.748,26.631-10.794,16.904
					L301.435,111.5z"/>
				<g>
					<path style="fill:#D1AB9B;" d="M308.198,108.648c0.77,0.03,1.523,0.352,2.145,0.848c0.633,0.491,1.111,1.184,1.407,1.939
						c0.258,0.769,0.343,1.577,0.251,2.352c-0.037,0.387-0.153,0.761-0.241,1.129c-0.145,0.358-0.289,0.71-0.474,1.042
						c-0.038-0.388-0.031-0.755-0.029-1.118c-0.033-0.364-0.031-0.719-0.064-1.067c-0.075-0.695-0.192-1.359-0.415-1.982
						C310.319,110.555,309.447,109.51,308.198,108.648z"/>
				</g>
				<g>
					<path style="fill:#D1AB9B;" d="M305.56,114.974c0.563-0.158,1.206-0.117,1.777,0.265c0.29,0.185,0.517,0.496,0.651,0.839
						c0.112,0.355,0.129,0.688,0.061,1.076c-0.103,0.377-0.345,0.723-0.643,0.938c-0.306,0.195-0.617,0.311-0.927,0.355
						c-0.613,0.089-1.203,0.008-1.74-0.239c0.555-0.183,1.072-0.339,1.516-0.539c0.45-0.214,0.733-0.465,0.786-0.76
						c0.073-0.349,0.027-0.748-0.233-1.06C306.54,115.514,306.077,115.235,305.56,114.974z"/>
				</g>
				<path style="fill:#D1AB9B;" d="M306.009,106.945c0.015,6.758-2.491,12.979-4.482,18.087c-0.397-0.266-0.802-0.567-1.215-0.915
					l1.122-12.618C301.435,111.5,303.102,108.204,306.009,106.945z"/>
			</g>
			<path style="fill:#FFD1BD;" d="M290.066,83.212c18.441,8.174,17.028,36.783,8.57,48.575
				c-11.52,16.062-33.272,14.504-41.861-6.564C246.805,100.766,261.642,70.613,290.066,83.212z"/>
			<g>
				<path style="fill:#D1AB9B;" d="M275.007,130.507c1.6,0.166,3.191,0.196,4.762,0.156c1.567-0.072,3.134-0.207,4.621-0.629
					c1.49-0.398,2.893-1.041,4.13-1.949c1.23-0.935,2.152-2.203,2.97-3.597c-0.456,1.529-1.216,3.061-2.473,4.186
					c-1.242,1.12-2.78,1.873-4.374,2.314c-1.603,0.432-3.26,0.529-4.883,0.443C278.136,131.339,276.527,131.046,275.007,130.507z"/>
			</g>
			<g>
				<path style="fill:#D1AB9B;" d="M271.823,117.942c-0.705-0.593-1.503-0.921-2.323-1.146c-0.824-0.211-1.671-0.315-2.52-0.31
					c-0.849-0.004-1.696,0.1-2.519,0.312c-0.82,0.226-1.617,0.553-2.324,1.145c0.381-0.857,1.201-1.487,2.063-1.87
					c0.872-0.396,1.831-0.561,2.78-0.574c0.949,0.014,1.908,0.179,2.78,0.575C270.621,116.457,271.442,117.086,271.823,117.942z"/>
			</g>
			<g>
				<path style="fill:#283847;" d="M266.98,113.2L266.98,113.2c-1.375,0-2.5-1.125-2.5-2.5v-2.983c0-1.375,1.125-2.5,2.5-2.5h0
					c1.375,0,2.5,1.125,2.5,2.5v2.983C269.481,112.075,268.356,113.2,266.98,113.2z"/>
				<path style="fill:#BCDDE8;" d="M266.273,109.485L266.273,109.485c-0.389,0-0.707-0.318-0.707-0.707v-0.844
					c0-0.389,0.318-0.707,0.707-0.707l0,0c0.389,0,0.707,0.318,0.707,0.707v0.844C266.98,109.167,266.662,109.485,266.273,109.485z"
					/>
			</g>
			<g>
				<path style="fill:#425C75;" d="M261.519,102.445c0.578-0.764,1.359-1.362,2.218-1.815c0.862-0.456,1.84-0.724,2.841-0.766
					c0.502-0.028,1.002,0.052,1.496,0.13c0.477,0.158,0.968,0.269,1.392,0.538c0.892,0.437,1.592,1.152,2.146,1.914
					c-0.842-0.461-1.609-0.94-2.457-1.198c-0.825-0.296-1.685-0.433-2.544-0.384C264.884,100.91,263.193,101.573,261.519,102.445z"
					/>
			</g>
			<g>
				<path style="fill:#D1AB9B;" d="M297.139,117.942c-0.705-0.593-1.503-0.921-2.323-1.146c-0.824-0.211-1.671-0.315-2.52-0.31
					c-0.849-0.004-1.695,0.1-2.519,0.312c-0.82,0.226-1.617,0.553-2.324,1.145c0.381-0.857,1.201-1.487,2.063-1.87
					c0.872-0.396,1.831-0.561,2.78-0.574c0.949,0.014,1.908,0.179,2.78,0.575C295.937,116.457,296.757,117.086,297.139,117.942z"/>
			</g>
			<g>
				<path style="fill:#283847;" d="M292.296,113.2L292.296,113.2c-1.375,0-2.5-1.125-2.5-2.5v-2.983c0-1.375,1.125-2.5,2.5-2.5l0,0
					c1.375,0,2.5,1.125,2.5,2.5v2.983C294.796,112.075,293.671,113.2,292.296,113.2z"/>
				<path style="fill:#BCDDE8;" d="M291.589,109.485L291.589,109.485c-0.389,0-0.707-0.318-0.707-0.707v-0.844
					c0-0.389,0.318-0.707,0.707-0.707l0,0c0.389,0,0.707,0.318,0.707,0.707v0.844C292.296,109.167,291.978,109.485,291.589,109.485z
					"/>
			</g>
			<g>
				<path style="fill:#425C75;" d="M286.835,102.445c0.578-0.764,1.359-1.362,2.218-1.815c0.862-0.456,1.84-0.724,2.841-0.766
					c0.502-0.028,1.002,0.052,1.496,0.13c0.477,0.158,0.968,0.269,1.392,0.538c0.892,0.437,1.592,1.152,2.146,1.914
					c-0.842-0.461-1.609-0.94-2.457-1.198c-0.825-0.296-1.685-0.433-2.544-0.384C290.199,100.91,288.508,101.573,286.835,102.445z"
					/>
			</g>
			<path style="fill:#425C75;" d="M252.631,115.989c0,0,12.653-14.075,16.156-26.784c0,0,16.537,19.1,38.258,23.697
				c0,0,8.86-37.007-29.073-37.007C240.038,75.895,252.631,115.989,252.631,115.989z"/>
			<g>
				<path style="fill:#D1AB9B;" d="M278.093,112.303c-0.012,0.821-0.11,1.633-0.213,2.446c-0.114,0.811-0.279,1.615-0.475,2.415
					c-0.213,0.794-0.439,1.592-0.769,2.361c-0.319,0.773-0.688,1.54-1.249,2.233l-0.058-0.669c0.329,0.245,0.928,0.503,1.459,0.664
					c0.555,0.164,1.128,0.311,1.716,0.405c0.586,0.11,1.183,0.176,1.784,0.254l1.822,0.169c-0.603,0.127-1.213,0.194-1.828,0.257
					c-0.616,0.051-1.236,0.064-1.859,0.03c-0.622-0.032-1.25-0.107-1.87-0.259c-0.634-0.167-1.213-0.309-1.868-0.789
					c-0.198-0.145-0.24-0.422-0.096-0.619l0.002-0.003l0.035-0.047c0.443-0.588,0.793-1.293,1.115-2.006
					c0.311-0.721,0.606-1.463,0.856-2.223C277.126,115.409,277.603,113.863,278.093,112.303z"/>
			</g>
		</g>
	</g>
	<path style="opacity:0.05;fill:#FFFFFF;" d="M258.066,82.314c4.108,2.128,9.234,3.395,14.798,3.395
		c5.47,0,10.52-1.222,14.591-3.286C280.175,76.941,267.45,75.837,258.066,82.314z"/>
	<g>
		<g>
			<g>
				<g>
					<g>
						<path style="fill:#212E3B;" d="M610.206,428.112l0.7,16.316c0.044,1.013-0.765,1.682-1.818,1.509l-34.194,1.703
							c-1.448-0.238-2.123-2.259-0.94-2.811l24.451-14.628L610.206,428.112z"/>
						<polygon style="fill:#6AAEB0;" points="612.344,432.458 596.033,430.543 594.626,284.432 629.906,284.432 						"/>
					</g>
				</g>
				<g>
					<g>
						<path style="fill:#212E3B;" d="M639.964,427.079l-1.846,16.174c-0.115,1.004,0.646,1.695,1.711,1.558l34.184,2.834
							c1.464-0.189,2.281-2.173,1.137-2.759l-23.41-15.328L639.964,427.079z"/>
						<polygon style="fill:#6AAEB0;" points="637.521,431.324 654.086,430.057 664.63,285.037 627.372,283.725 						"/>
					</g>
				</g>
			</g>
			<g>
				<polygon style="fill:#EBC0AE;" points="540.199,230.678 552.804,232.185 554.016,221.004 541.411,219.497 				"/>
				<path style="fill:#EBC0AE;" d="M544.366,223.172c-0.063-4.081-1.242-7.972-3.52-10.249c-2.278-2.278-5.176-5.694-6.212-6.729
					c-1.035-1.035-4.659,0.104,0,9.11c0,0-9.364-1.695-10.56,0.518c-0.506,0.937-0.598,1.568-0.145,2.585
					c0.764,1.713-0.323,1.526-0.566,3.088c-0.229,1.469,0.504,2.301,0.504,2.922c0,0.621-0.693,1.295-0.7,2.139
					c-0.011,1.344,1.01,2.313,0.804,3.555c-0.207,1.242-0.804,3.106,1.967,3.623C528.788,234.266,544.573,236.527,544.366,223.172z"
					/>
				<g>
					<path style="fill:#FFD1BD;" d="M527.628,233.811c-3.765,0-4.7-1.126-4.7-2.514c0-1.389,0.935-2.514,4.7-2.514
						c3.765,0,7.721,1.126,7.721,2.514C535.349,232.685,531.393,233.811,527.628,233.811z"/>
					<path style="fill:#FFD1BD;" d="M527.532,230.055c-4.005,0-5-1.273-5-2.843c0-1.57,0.994-2.844,5-2.844s8.213,1.273,8.213,2.844
						C535.745,228.782,531.537,230.055,527.532,230.055z"/>
					<path style="fill:#FFD1BD;" d="M527.408,224.895c-4.216-0.155-5.265-1.193-5.265-2.665s1.047-2.665,5.265-2.665
						c4.218,0,8.65,1.193,8.65,2.665S532.785,225.092,527.408,224.895z"/>
					<path style="fill:#FFD1BD;" d="M527.532,220.225c-4.005,0-5-1.273-5-2.843s0.994-2.843,5-2.843s8.213,1.273,8.213,2.843
						S531.537,220.225,527.532,220.225z"/>
				</g>
				<g>
					<path style="fill:#DAE8ED;" d="M546.234,232.563l22.861,5.666l9.204,1.43l4.602,0.715l2.508,0.38l3.997,0.544l1.996,0.182
						c0.648,0.014,1.294,0.01,1.939,0c0.629-0.03,1.245-0.117,1.868-0.181c0.614-0.116,1.234-0.216,1.837-0.395
						c1.222-0.304,2.393-0.805,3.524-1.374c1.117-0.602,2.172-1.322,3.153-2.138c1.916-1.678,3.497-3.759,4.515-6.091
						c0.285-0.571,0.465-1.178,0.692-1.771c0.161-0.612,0.348-1.216,0.482-1.839c0.116-0.642,0.217-1.294,0.309-1.949l0.124-2.047
						l0.031-3.165l0.015-1.59l0.026-0.891l0.104-3.525l0.208-7.051l0.417-26.103l0.834-34.205l-8.414-0.551
						c-7.199,0.108-15.681,8.63-15.252,15.816l0.33,19.278l0.841,26.085l0.42,7.042l0.21,3.521l0.052,0.871l0.042,0.171l0.084,0.359
						c0.062,0.324,0.184,0.681,0.167,1.05c-0.009,0.368-0.132,0.734-0.344,1.04c-0.215,0.303-0.521,0.546-0.875,0.67
						c-0.355,0.132-0.736,0.108-1.142,0.146l-0.628,0.035l-0.084,0.004l-0.291-0.019l-0.581-0.038l-1.162-0.076l-4.648-0.302
						l-9.295-0.604l-23.224-2.364L546.234,232.563z"/>
				</g>
			</g>
			<g>
				<g>
					
						<rect x="677.856" y="284.599" transform="matrix(-0.9955 0.0945 -0.0945 -0.9955 1392.2942 518.9694)" style="fill:#FFD1BD;" width="11.999" height="15.721"/>
					<g>
						<path style="fill:#E5F2F5;" d="M691.654,288.032L678.8,163.387c-0.629-9.136-9.997-15.329-15.921-15.222l-10.168,2.475
							l23.348,139.233L691.654,288.032z"/>
					</g>
				</g>
				<g>
					<path style="fill:#567798;" d="M659.979,264.269h55.93c1.67,0,3.023,1.354,3.023,3.023v36.733c0,1.67-1.354,3.023-3.023,3.023
						h-55.93c-1.67,0-3.023-1.354-3.023-3.023v-36.733C656.955,265.622,658.309,264.269,659.979,264.269z"/>
					
						<rect x="659.104" y="269.285" transform="matrix(-1 -1.224647e-16 1.224647e-16 -1 1371.7206 573.4146)" style="opacity:0.15;" width="53.512" height="34.845"/>
					
						<rect x="660.226" y="268.236" transform="matrix(-1 -1.224647e-16 1.224647e-16 -1 1373.9639 571.3163)" style="fill:#EDEDED;" width="53.511" height="34.845"/>
					<path style="fill:#425C75;" d="M713.738,296.274L713.738,296.274c1.058,0,1.924-0.866,1.924-1.923v-17.279
						c0-1.058-0.866-1.923-1.924-1.923l0,0c-1.058,0-1.923,0.866-1.923,1.923v17.279
						C711.814,295.409,712.68,296.274,713.738,296.274z"/>
					<g>
						<path style="fill:#B4C2CC;" d="M705.432,299.503L705.432,299.503c0.177,0,0.323-0.145,0.323-0.323v-26.936
							c0-0.177-0.145-0.323-0.323-0.323l0,0c-0.178,0-0.323,0.145-0.323,0.323v26.936
							C705.109,299.357,705.254,299.503,705.432,299.503z"/>
						<path style="fill:#B4C2CC;" d="M700.62,299.503L700.62,299.503c0.178,0,0.323-0.145,0.323-0.323v-26.936
							c0-0.177-0.145-0.323-0.323-0.323l0,0c-0.177,0-0.323,0.145-0.323,0.323v26.936
							C700.297,299.357,700.442,299.503,700.62,299.503z"/>
						<path style="fill:#B4C2CC;" d="M695.807,299.503L695.807,299.503c0.177,0,0.323-0.145,0.323-0.323v-26.936
							c0-0.177-0.145-0.323-0.323-0.323l0,0c-0.178,0-0.323,0.145-0.323,0.323v26.936
							C695.485,299.357,695.63,299.503,695.807,299.503z"/>
						<path style="fill:#B4C2CC;" d="M690.995,299.503L690.995,299.503c0.178,0,0.323-0.145,0.323-0.323v-26.936
							c0-0.177-0.145-0.323-0.323-0.323l0,0c-0.177,0-0.323,0.145-0.323,0.323v26.936
							C690.672,299.357,690.818,299.503,690.995,299.503z"/>
						<path style="fill:#B4C2CC;" d="M686.183,299.503L686.183,299.503c0.177,0,0.323-0.145,0.323-0.323v-26.936
							c0-0.177-0.145-0.323-0.323-0.323l0,0c-0.178,0-0.323,0.145-0.323,0.323v26.936
							C685.86,299.357,686.005,299.503,686.183,299.503z"/>
						<path style="fill:#B4C2CC;" d="M681.371,299.503L681.371,299.503c0.178,0,0.323-0.145,0.323-0.323v-26.936
							c0-0.177-0.145-0.323-0.323-0.323l0,0c-0.178,0-0.323,0.145-0.323,0.323v26.936
							C681.048,299.357,681.193,299.503,681.371,299.503z"/>
						<path style="fill:#B4C2CC;" d="M676.559,299.503L676.559,299.503c0.178,0,0.323-0.145,0.323-0.323v-26.936
							c0-0.177-0.145-0.323-0.323-0.323l0,0c-0.178,0-0.323,0.145-0.323,0.323v26.936
							C676.236,299.357,676.381,299.503,676.559,299.503z"/>
						<path style="fill:#B4C2CC;" d="M671.747,299.503L671.747,299.503c0.177,0,0.323-0.145,0.323-0.323v-26.936
							c0-0.177-0.145-0.323-0.323-0.323l0,0c-0.178,0-0.323,0.145-0.323,0.323v26.936
							C671.424,299.357,671.569,299.503,671.747,299.503z"/>
						<path style="fill:#B4C2CC;" d="M666.876,294.969h0.117c0.146,0,0.264-0.119,0.264-0.264v-17.987
							c0-0.146-0.119-0.264-0.264-0.264h-0.117c-0.145,0-0.264,0.119-0.264,0.264v17.987
							C666.612,294.85,666.731,294.969,666.876,294.969z"/>
					</g>
				</g>
				<g>
					<path style="fill:#FFD1BD;" d="M676.519,306.626c0,3.661,1.014,4.57,2.265,4.57s2.265-0.909,2.265-4.57
						c0-3.661-1.014-7.507-2.265-7.507S676.519,302.965,676.519,306.626z"/>
					<path style="fill:#FFD1BD;" d="M679.902,306.719c0,3.894,1.147,4.861,2.561,4.861s2.561-0.967,2.561-4.861
						c0-3.894-1.147-7.986-2.561-7.986S679.902,302.825,679.902,306.719z"/>
					<path style="fill:#FFD1BD;" d="M684.55,306.839c0.139,4.099,1.075,5.119,2.401,5.119s2.401-1.018,2.401-5.119
						c0-4.101-1.075-8.41-2.401-8.41S684.372,301.611,684.55,306.839z"/>
					<path style="fill:#FFD1BD;" d="M688.757,306.719c0,3.894,1.147,4.861,2.561,4.861c1.415,0,2.561-0.967,2.561-4.861
						c0-3.894-1.147-7.986-2.561-7.986C689.904,298.733,688.757,302.825,688.757,306.719z"/>
				</g>
			</g>
			<g>
				<polygon style="opacity:0.1;" points="662.199,318.466 664.63,285.037 627.372,283.725 627.421,284.432 594.626,284.432 
					594.951,318.213 622.464,323.512 626.057,311.143 626.55,312.714 628.333,297.692 630.106,323.487 				"/>
				<path style="fill:#FFFFFF;" d="M664.048,255.52c-2.728-17.738-7.917-17.851-3.267-42.646c6.021-32.11,2.097-64.71,2.097-64.71
					s-14.748-5.148-33.291-5.148c-11.603,0-20.633,2.057-26.517,3.597c0,0,0.487,3.327,0.545,4.444
					c0.203,3.914,0.203,3.914-2.295,15.366c-1.484,6.807-2.72,11.823-3.385,20.205c-1.172,14.772,4.693,15.728,2.84,37.139
					c-1.766,20.414-9.975,40.638-9.564,84.614l31.252,6.019l3.593-12.369l3.887,12.369l38.859-6.079
					C668.237,291.918,667.802,279.928,664.048,255.52z"/>
				<path style="fill:#75C1C2;" d="M611.841,144.491l18.575,38.869l16.814-38.885c-5.099-0.823-11.135-1.458-17.643-1.458
					C623.036,143.016,616.962,143.66,611.841,144.491z"/>
				<path style="fill:#6CB1B3;" d="M611.841,144.491l5.457,11.418c3.66,1.338,7.82,2.098,12.238,2.098
					c4.665,0,9.045-0.847,12.85-2.328l4.845-11.205c-5.099-0.823-11.135-1.458-17.643-1.458
					C623.036,143.016,616.962,143.66,611.841,144.491z"/>
				<path style="fill:#EBC0AE;" d="M611.841,144.491l4.41,9.228c3.816,1.748,8.378,2.768,13.284,2.768
					c5.13,0,9.884-1.115,13.802-3.012l3.892-9.001c-5.099-0.823-11.135-1.458-17.643-1.458
					C623.036,143.016,616.962,143.66,611.841,144.491z"/>
				<polygon style="fill:#E5F2F5;" points="611.841,144.491 606.998,170.894 618.307,173.903 614.91,195.395 630.14,219.037 
					630.417,183.36 				"/>
				<polygon style="fill:#DAE8ED;" points="630.14,219.037 630.417,183.36 647.23,144.474 649.47,173.903 638.628,176.37 
					644.578,197.115 				"/>
			</g>
			<g>
				<path style="fill:none;stroke:#567798;stroke-width:2;stroke-linecap:round;stroke-linejoin:round;stroke-miterlimit:10;" d="
					M648.749,164.657c5.492-23.174-7.265-23.174-18.858-23.174c0,0-28.917-3.089-17.38,27.782"/>
				<path style="fill:none;stroke:#567798;stroke-width:2;stroke-linecap:round;stroke-linejoin:round;stroke-miterlimit:10;" d="
					M648.08,192.836c0,0,10.472-24.331,0.669-28.18c-12.14-4.766-20.913,24.195-20.913,24.195"/>
				<g>
					<g>
						<path style="fill:#567798;" d="M644.141,193.199l2.819,1.189c0.25,0.105,0.54-0.013,0.645-0.262l0.951-2.254
							c0.105-0.25-0.013-0.54-0.262-0.645l-2.819-1.189c-0.869-0.367-1.881,0.044-2.248,0.914l0,0
							C642.86,191.82,643.271,192.832,644.141,193.199z"/>
						<path style="fill:#4C6A87;" d="M646.951,195.675L646.951,195.675c0.614,0.259,1.328-0.031,1.588-0.645l1.317-3.12
							c0.259-0.614-0.031-1.329-0.646-1.588l0,0c-0.614-0.259-1.328,0.031-1.588,0.646l-1.316,3.12
							C646.047,194.702,646.337,195.416,646.951,195.675z"/>
					</g>
					<g>
						<path style="fill:#567798;" d="M632.374,187.176l-2.953-1.246c-0.261-0.11-0.566,0.013-0.676,0.275l-0.997,2.362
							c-0.11,0.261,0.013,0.566,0.275,0.676l2.953,1.246c0.911,0.384,1.971-0.046,2.355-0.957v0
							C633.716,188.62,633.285,187.56,632.374,187.176z"/>
						<path style="fill:#4C6A87;" d="M629.43,184.581L629.43,184.581c-0.643-0.271-1.392,0.033-1.663,0.676l-1.379,3.269
							c-0.272,0.643,0.033,1.392,0.676,1.663l0,0c0.643,0.271,1.392-0.033,1.663-0.676l1.379-3.269
							C630.377,185.601,630.073,184.853,629.43,184.581z"/>
					</g>
				</g>
				<g>
					<circle style="fill:#567798;" cx="612.511" cy="169.265" r="4.97"/>
					<circle style="fill:#BCDDE8;" cx="612.511" cy="169.265" r="3.971"/>
					<circle style="fill:#567798;" cx="612.511" cy="169.265" r="2.954"/>
				</g>
			</g>
		</g>
		<g>
			<rect x="619.077" y="106.198" style="fill:#EBC0AE;" width="21.326" height="42.791"/>
			<path style="fill:#425C75;" d="M602.043,134.332c0,0,24.904-9.315,50.444,0l5.823-8.71c0,0,10.607-45.571-33.438-45.571
				S602.043,134.332,602.043,134.332z"/>
			<g>
				<path style="fill:#FFD1BD;" d="M616.256,73.959c-19.758,6.806-17.209,36.809-9.416,50.14
					c9.317,15.938,29.808,20.271,44.259-4.895C665.55,94.037,646.434,63.562,616.256,73.959z"/>
				<g>
					<path style="fill:#D1AB9B;" d="M614.412,111.774c-0.706-0.641-1.518-1.011-2.359-1.276c-0.844-0.251-1.716-0.391-2.594-0.419
						c-0.878-0.037-1.758,0.038-2.618,0.224c-0.857,0.201-1.695,0.509-2.448,1.094c0.427-0.872,1.3-1.491,2.206-1.854
						c0.918-0.376,1.916-0.509,2.898-0.485c0.981,0.052,1.966,0.259,2.853,0.703C613.227,110.191,614.051,110.873,614.412,111.774z"
						/>
				</g>
				<g>
					
						<path style="fill:none;stroke:#283847;stroke-width:1.3344;stroke-linecap:round;stroke-linejoin:round;stroke-miterlimit:10;" d="
						M612.271,104.191l0.116-3.086c0.054-1.422-1.067-2.63-2.489-2.683l0,0c-1.422-0.053-2.63,1.067-2.683,2.489l-0.116,3.086
						l-2.704-1.53"/>
				</g>
				<g>
					<path style="fill:#425C75;" d="M604.356,95.343c0.624-0.773,1.453-1.366,2.361-1.804c0.909-0.441,1.933-0.681,2.973-0.687
						c0.522-0.01,1.037,0.093,1.546,0.194c0.488,0.183,0.993,0.318,1.421,0.614c0.906,0.489,1.601,1.26,2.14,2.075
						c-0.858-0.505-1.634-1.027-2.501-1.324c-0.842-0.335-1.723-0.508-2.611-0.492C607.901,93.903,606.129,94.517,604.356,95.343z"
						/>
				</g>
				<g>
					<path style="fill:#D1AB9B;" d="M640.597,112.757c-0.707-0.641-1.518-1.011-2.358-1.276c-0.844-0.251-1.716-0.391-2.594-0.419
						c-0.878-0.037-1.758,0.038-2.618,0.224c-0.857,0.201-1.694,0.509-2.448,1.094c0.427-0.872,1.3-1.491,2.206-1.854
						c0.918-0.376,1.916-0.508,2.898-0.485c0.981,0.052,1.966,0.259,2.853,0.703C639.412,111.174,640.236,111.856,640.597,112.757z"
						/>
				</g>
				<g>
					<path style="fill:#425C75;" d="M630.542,96.327c0.624-0.773,1.453-1.365,2.361-1.803c0.91-0.441,1.934-0.681,2.973-0.687
						c0.521-0.01,1.037,0.093,1.546,0.194c0.488,0.183,0.993,0.318,1.421,0.614c0.906,0.489,1.601,1.26,2.14,2.075
						c-0.858-0.505-1.634-1.027-2.501-1.324c-0.842-0.335-1.723-0.508-2.611-0.492C634.086,94.886,632.314,95.501,630.542,96.327z"
						/>
				</g>
				<g>
					<path style="fill:#D1AB9B;" d="M621.117,106.184c-0.044,0.849-0.177,1.685-0.315,2.522c-0.149,0.835-0.351,1.66-0.585,2.479
						c-0.251,0.813-0.516,1.629-0.888,2.413c-0.36,0.787-0.771,1.566-1.379,2.261l-0.034-0.694c0.331,0.266,0.94,0.556,1.483,0.744
						c0.567,0.191,1.155,0.366,1.759,0.485c0.602,0.136,1.216,0.228,1.835,0.332l1.878,0.246c-0.628,0.108-1.262,0.153-1.901,0.194
						c-0.638,0.029-1.281,0.018-1.924-0.042c-0.643-0.057-1.289-0.16-1.925-0.341c-0.65-0.198-1.242-0.367-1.902-0.888
						c-0.199-0.157-0.232-0.446-0.075-0.645l0.002-0.003l0.038-0.047c0.481-0.591,0.87-1.306,1.231-2.031
						c0.35-0.734,0.683-1.49,0.972-2.266C619.995,109.359,620.549,107.779,621.117,106.184z"/>
				</g>
				<g>
					<g>
						<path style="fill:#283847;" d="M635.773,107.663L635.773,107.663c-1.422-0.053-2.542-1.261-2.489-2.683l0.116-3.086
							c0.053-1.422,1.261-2.543,2.683-2.489l0,0c1.422,0.053,2.543,1.261,2.489,2.683l-0.116,3.086
							C638.403,106.597,637.195,107.717,635.773,107.663z"/>
						<path style="fill:#BCDDE8;" d="M635.185,103.794L635.185,103.794c-0.402-0.015-0.719-0.357-0.704-0.759l0.033-0.873
							c0.015-0.402,0.357-0.719,0.759-0.704l0,0c0.402,0.015,0.719,0.357,0.704,0.759l-0.033,0.873
							C635.929,103.492,635.588,103.809,635.185,103.794z"/>
					</g>
					
						<line style="fill:none;stroke:#283847;stroke-width:1.3344;stroke-linecap:round;stroke-linejoin:round;stroke-miterlimit:10;" x1="636.928" y1="106.184" x2="640.597" y2="104.811"/>
				</g>
				<path style="fill:#FFFFFF;" d="M620.235,122.9c0,0,10.216,0.254,15.628-5.242c0,0,0.21,7.182-4.336,9.127
					C625.046,129.558,620.235,122.9,620.235,122.9z"/>
			</g>
			<path style="fill:#567798;" d="M653.645,71.868c-11.496-10.89-31.737-10.992-44.165-3.693
				c-7.702,4.523-11.922,12.185-13.378,19.374c-4.905,24.225,0,42.491,0,42.491l9.442,6.822c0,0-10.082-33.914,0.454-52.645l-1,6.58
				c0,0,2.335-0.228,6.362-0.313l3.052-7.408l-1.388,7.383c2.892-0.027,6.457,0.026,10.538,0.262l1.31-4.864l0.534,4.982
				c3.69,0.254,7.75,0.662,12.063,1.283l3.128-7.238l-1.943,7.411c2.723,0.413,5.54,0.914,8.426,1.518l3.565-5.642l-2.564,48.314
				l12.73-6.214C660.811,130.269,668.642,86.075,653.645,71.868z"/>
			<path style="opacity:0.05;fill:#FFFFFF;" d="M611.289,70.836c-0.218,0.128-0.424,0.267-0.636,0.401
				c5.867,3.024,13.087,4.813,20.9,4.813c6.607,0,12.789-1.28,18.089-3.503C638.935,64.285,621.958,64.571,611.289,70.836z"/>
		</g>
	</g>
</g>
</svg>
