<?xml version="1.0" encoding="utf-8"?>
<!-- Generator: Adobe Illustrator 27.5.0, SVG Export Plug-In . SVG Version: 6.00 Build 0)  -->
<svg version="1.1" xmlns="http://www.w3.org/2000/svg" xmlns:xlink="http://www.w3.org/1999/xlink" x="0px" y="0px"
	 viewBox="125 0 750 500" style="enable-background:new 125 0 750 500;" xml:space="preserve">
<g id="BACKGROUND">
	<rect x="125" style="fill:#FFFFFF;" width="750" height="500"/>
</g>
<g id="OBJECTS">
	<g>
		<g>
			<path style="fill:#FEEFE6;" d="M359.01,445.78c90.67,22.75,238.89,25.29,338.93-22.6c92.41-44.23,111.43-206.85,48.01-299.09
				c-45.07-65.55-131.42-91.7-214.22-82.41c-97.7,10.96-123.62,78.52-188.45,127.06c-40.34,30.2-122.73,22.77-138.29,110.89
				C187.27,380.06,296.41,430.07,359.01,445.78z"/>
		</g>
		<g>
			<g>
				<g>
					<path style="fill:#D49BA0;" d="M676.25,443.35c11.63-201.76,99.39-226.6,113.17-209.62
						C818.29,269.29,718.05,380.62,676.25,443.35z"/>
					<g>
						<path style="fill:none;stroke:#F2CDBF;stroke-linecap:round;stroke-miterlimit:10;" d="M779.86,241.71
							c-49.13,57.27-84.18,126.53-101.23,200.03"/>
						<path style="fill:none;stroke:#F2CDBF;stroke-linecap:round;stroke-miterlimit:10;" d="M753.97,243.44
							c2.85,8.45,4.4,17.33,4.6,26.24c9.38-2.02,18.95-3.11,28.55-3.25"/>
						<path style="fill:none;stroke:#F2CDBF;stroke-linecap:round;stroke-miterlimit:10;" d="M720.19,278.41
							c5.52,9.59,9.59,20,12.05,30.78c11.15-2.39,22.57-3.55,33.97-3.45"/>
						<path style="fill:none;stroke:#F2CDBF;stroke-linecap:round;stroke-miterlimit:10;" d="M696.91,329.12
							c4.6,7.21,8.57,14.82,11.85,22.72c10.79-4.36,22.48-6.47,34.11-6.15"/>
						<path style="fill:none;stroke:#F2CDBF;stroke-linecap:round;stroke-miterlimit:10;" d="M718.88,377.8
							c-7.08-0.52-14.24,0.02-21.16,1.58c-1.8-5.72-4.36-11.2-7.59-16.24"/>
					</g>
				</g>
				<g>
					<path style="fill:#D49BA0;" d="M676.25,443.35c64.5-102.7,146.84-136.54,150.58-99.43
						C832.02,395.31,720.78,428.85,676.25,443.35z"/>
					<g>
						<path style="fill:none;stroke:#F2CDBF;stroke-linecap:round;stroke-miterlimit:10;" d="M816.58,347.55
							c-50.78,24.24-97.77,56.41-138.74,94.98"/>
						<path style="fill:none;stroke:#F2CDBF;stroke-linecap:round;stroke-miterlimit:10;" d="M798.33,336.83
							c0.21,7.16-0.47,14.35-2.04,21.34c7.05,0.68,13.87,3.46,19.38,7.91"/>
						<path style="fill:none;stroke:#F2CDBF;stroke-linecap:round;stroke-miterlimit:10;" d="M763.95,352.71
							c1.33,7.54,1.86,15.22,1.56,22.88c9.54,0.87,18.84,4.16,26.8,9.47"/>
						<path style="fill:none;stroke:#F2CDBF;stroke-linecap:round;stroke-miterlimit:10;" d="M731.41,376.38
							c2.63,5.91,3.86,12.43,3.58,18.89c8.82,0.69,17.47,3.49,25.02,8.09"/>
					</g>
				</g>
			</g>
			<g>
				<g>
					<rect x="563.11" y="282.17" style="fill:#F2CDBF;" width="143" height="15"/>
					<g>
						<polygon style="fill:#F2CDBF;" points="701.89,297.17 701.89,443.35 689.22,443.35 689.22,435.35 579.94,435.35 
							579.94,443.35 567.32,443.35 567.32,297.17 						"/>
						<rect x="567.32" y="297.17" style="fill:#D4A59B;" width="134.56" height="3"/>
					</g>
					<g>
						<g>
							<g>
								<rect x="580.78" y="310.27" style="fill:#D4A59B;" width="107.25" height="32.5"/>
								<rect x="579.68" y="307.27" style="fill:#FADED2;" width="109.45" height="32.5"/>
							</g>
						</g>
						<g>
							<g>
								<rect x="580.78" y="351.27" style="fill:#D4A59B;" width="107.25" height="32.5"/>
								<rect x="579.68" y="348.27" style="fill:#FADED2;" width="109.45" height="32.5"/>
							</g>
						</g>
						<g>
							<g>
								<rect x="580.78" y="392.27" style="fill:#D4A59B;" width="107.25" height="32.5"/>
								<rect x="579.68" y="389.27" style="fill:#FADED2;" width="109.45" height="32.5"/>
							</g>
						</g>
					</g>
				</g>
				<g>
					<g>
						<g>
							<g>
								<path style="fill:#FFFFFF;" d="M598.19,274.88v-22.75h6.25v22.75c0,1.52-1.23,2.75-2.75,2.75h-0.75
									C599.42,277.63,598.19,276.4,598.19,274.88z"/>
								<path style="fill:#FFFFFF;" d="M597.06,251.41L597.06,251.41c0-0.39,0.32-0.72,0.72-0.72h7.07c0.39,0,0.72,0.32,0.72,0.72
									l0,0c0,0.39-0.32,0.72-0.72,0.72h-7.07C597.38,252.12,597.06,251.8,597.06,251.41z"/>
							</g>
							<path style="fill:#F0D3D8;" d="M599.19,274.51v-14.88h4.25v14.88c0,1.17-0.95,2.12-2.12,2.12l0,0
								C600.14,276.63,599.19,275.68,599.19,274.51z"/>
						</g>
						<g>
							<g>
								<path style="fill:#FFFFFF;" d="M610.69,274.88v-22.75h6.25v22.75c0,1.52-1.23,2.75-2.75,2.75h-0.75
									C611.92,277.63,610.69,276.4,610.69,274.88z"/>
								<path style="fill:#FFFFFF;" d="M609.56,251.41L609.56,251.41c0-0.39,0.32-0.72,0.72-0.72h7.07c0.39,0,0.72,0.32,0.72,0.72
									l0,0c0,0.39-0.32,0.72-0.72,0.72h-7.07C609.88,252.12,609.56,251.8,609.56,251.41z"/>
							</g>
							<path style="fill:#F0D3D8;" d="M611.69,274.51v-14.88h4.25v14.88c0,1.17-0.95,2.12-2.12,2.12l0,0
								C612.64,276.63,611.69,275.68,611.69,274.51z"/>
						</g>
						<g>
							<g>
								<path style="fill:#FFFFFF;" d="M623.94,274.88v-22.75h6.25v22.75c0,1.52-1.23,2.75-2.75,2.75h-0.75
									C625.17,277.63,623.94,276.4,623.94,274.88z"/>
								<path style="fill:#FFFFFF;" d="M622.81,251.41L622.81,251.41c0-0.39,0.32-0.72,0.72-0.72h7.07c0.39,0,0.72,0.32,0.72,0.72
									l0,0c0,0.39-0.32,0.72-0.72,0.72h-7.07C623.13,252.12,622.81,251.8,622.81,251.41z"/>
							</g>
							<path style="fill:#F0D3D8;" d="M624.94,274.51v-14.88h4.25v14.88c0,1.17-0.95,2.12-2.12,2.12l0,0
								C625.89,276.63,624.94,275.68,624.94,274.51z"/>
						</g>
						<g>
							<g>
								<path style="fill:#FFFFFF;" d="M637.44,274.88v-22.75h6.25v22.75c0,1.52-1.23,2.75-2.75,2.75h-0.75
									C638.67,277.63,637.44,276.4,637.44,274.88z"/>
								<path style="fill:#FFFFFF;" d="M636.31,251.41L636.31,251.41c0-0.39,0.32-0.72,0.72-0.72h7.07c0.39,0,0.72,0.32,0.72,0.72
									l0,0c0,0.39-0.32,0.72-0.72,0.72h-7.07C636.63,252.12,636.31,251.8,636.31,251.41z"/>
							</g>
							<path style="fill:#F0D3D8;" d="M638.44,274.51v-14.88h4.25v14.88c0,1.17-0.95,2.12-2.12,2.12l0,0
								C639.39,276.63,638.44,275.68,638.44,274.51z"/>
						</g>
						<g>
							<g>
								<path style="fill:#FFFFFF;" d="M651.94,274.88v-22.75h6.25v22.75c0,1.52-1.23,2.75-2.75,2.75h-0.75
									C653.17,277.63,651.94,276.4,651.94,274.88z"/>
								<path style="fill:#FFFFFF;" d="M650.81,251.41L650.81,251.41c0-0.39,0.32-0.72,0.72-0.72h7.07c0.39,0,0.72,0.32,0.72,0.72
									l0,0c0,0.39-0.32,0.72-0.72,0.72h-7.07C651.13,252.12,650.81,251.8,650.81,251.41z"/>
							</g>
							<path style="fill:#F0D3D8;" d="M652.94,274.51v-14.88h4.25v14.88c0,1.17-0.95,2.12-2.12,2.12l0,0
								C653.89,276.63,652.94,275.68,652.94,274.51z"/>
						</g>
					</g>
					<g>
						<rect x="592.01" y="253.44" style="fill:#A7C2D9;" width="77" height="2"/>
						<rect x="587.98" y="277.17" style="fill:#D49BA0;" width="86" height="5"/>
						<g>
							<rect x="591.39" y="250.69" style="fill:#D49BA0;" width="2.19" height="28.97"/>
							<rect x="667.7" y="250.69" style="fill:#D49BA0;" width="2.19" height="28.97"/>
						</g>
					</g>
				</g>
			</g>
			<g>
				<g>
					<g>
						<path style="fill:#BF828B;" d="M277.33,353.68c18.12-22.73,26.97-52.54,24.16-81.4s-17.25-56.43-40.24-75.59
							c0.33,21.38-0.55,42.78-2.65,64.06c-1.99,20.24-5.05,40.94-0.21,60.7C261.27,333.2,266.93,344.26,277.33,353.68z"/>
						<g>
							<path style="fill:none;stroke:#F2CDBF;stroke-linecap:round;stroke-miterlimit:10;" d="M275.63,379.63
								c0-71.53,18.98-94.62-8.83-170.11"/>
							<path style="fill:none;stroke:#F2CDBF;stroke-linecap:round;stroke-miterlimit:10;" d="M280.04,221.93
								c-1.94,4.14-3.88,8.29-5.82,12.43c-3.45-1.7-7.23-2.73-11.06-3.02"/>
							<path style="fill:none;stroke:#F2CDBF;stroke-linecap:round;stroke-miterlimit:10;" d="M260.67,264.96
								c7.29,0.29,14.5,2.26,20.93,5.69c4.27-5.27,9.35-9.89,15-13.66"/>
							<path style="fill:none;stroke:#F2CDBF;stroke-linecap:round;stroke-miterlimit:10;" d="M259.84,299.66
								c7.32-0.6,14.84,1.32,20.96,5.36c5.95-6.3,12.8-11.76,20.28-16.17"/>
							<path style="fill:none;stroke:#F2CDBF;stroke-linecap:round;stroke-miterlimit:10;" d="M263.15,328.25
								c5.49,0.59,10.74,3.21,14.49,7.24c3.97-5.41,8.82-10.19,14.31-14.08"/>
						</g>
					</g>
					<g>
						<path style="fill:#D49BA0;" d="M290.38,351.5c0,0-15.4-33.69,4.33-70.56c10.9-20.37,34.45-45.16,63.82-65.89
							c0,0-13.98,76.1-31.35,107.92C313.8,347.49,290.38,351.5,290.38,351.5z"/>
						<g>
							<path style="fill:none;stroke:#F2CDBF;stroke-linecap:round;stroke-miterlimit:10;" d="M347.9,229.78
								c-30.34,48.74-51.94,101.92-69.07,156.63"/>
							<path style="fill:none;stroke:#F2CDBF;stroke-linecap:round;stroke-miterlimit:10;" d="M328.6,241.85
								c1.82,4.24,3.28,8.64,4.35,13.12c5.15-0.98,10.36-1.63,15.59-1.96"/>
							<path style="fill:none;stroke:#F2CDBF;stroke-linecap:round;stroke-miterlimit:10;" d="M304.5,272.43
								c4.26,6.04,7.71,12.64,10.21,19.58c8.03-3.87,16.67-6.49,25.51-7.74"/>
							<path style="fill:none;stroke:#F2CDBF;stroke-linecap:round;stroke-miterlimit:10;" d="M290.33,298.29
								c5.21,6.69,9.17,14.34,11.59,22.44c9.04-3.81,18.49-6.66,28.14-8.49"/>
							<path style="fill:none;stroke:#F2CDBF;stroke-linecap:round;stroke-miterlimit:10;" d="M286.49,329.41
								c3,3.35,5.82,6.87,8.43,10.53c6.65-2.73,13.64-4.68,20.75-5.78"/>
						</g>
					</g>
					<g>
						<path style="fill:#D49BA0;" d="M261.34,358.32c0,0,13.35-18.93,3.48-51.76c-13.52-44.98-69.83-76.88-69.83-76.88
							s15.1,61.54,26.88,92.2C233.8,352.9,261.34,358.32,261.34,358.32z"/>
						<g>
							<path style="fill:none;stroke:#F2CDBF;stroke-linecap:round;stroke-miterlimit:10;" d="M264.82,374.82
								c0,0-7.68-61.9-62.37-136.52"/>
							<path style="fill:none;stroke:#F2CDBF;stroke-linecap:round;stroke-miterlimit:10;" d="M222.27,251.35
								c-1.6,3.72-2.67,7.66-3.17,11.67c-3.82-1.08-7.8-1.63-11.78-1.62"/>
							<path style="fill:none;stroke:#F2CDBF;stroke-linecap:round;stroke-miterlimit:10;" d="M215.05,293.03
								c7.46-1.15,15.19-0.61,22.41,1.57c1.4-6.69,4.55-13.02,9.05-18.19"/>
							<path style="fill:none;stroke:#F2CDBF;stroke-linecap:round;stroke-miterlimit:10;" d="M262.78,305.94
								c-5.09,5.59-9.08,12.17-11.67,19.25c-7.07-3.06-15.22-3.58-22.63-1.44"/>
							<path style="fill:none;stroke:#F2CDBF;stroke-linecap:round;stroke-miterlimit:10;" d="M244.4,348.38
								c4.87-0.89,9.89-0.95,14.78-0.2c1.7-3.91,4.14-7.5,7.16-10.52"/>
						</g>
					</g>
				</g>
				<g>
					<polygon style="fill:#D49BA0;" points="312.68,363.53 310.57,375.43 308.26,388.52 307.04,395.38 304.73,408.48 298.57,443.35 
						253.59,443.35 247.31,408.48 244.95,395.38 243.72,388.52 241.35,375.43 239.21,363.53 					"/>
					<polygon style="fill:#FADED2;" points="310.57,375.43 308.26,388.52 243.72,388.52 241.35,375.43 					"/>
					<polygon style="fill:#FADED2;" points="307.04,395.38 304.73,408.48 247.31,408.48 244.95,395.38 					"/>
				</g>
			</g>
		</g>
		<g>
			<g>
				<g>
					<g>
						<g>
							<rect x="320.88" y="425.1" style="fill:#326894;" width="73.67" height="6.85"/>
							<g>
								<path style="fill:#4D8AB3;" d="M333.49,361.68c0,0.17-0.02,0.35-0.04,0.52l-1.14,9.44l-10.19,84.11
									c-0.27,2.26-2.27,3.86-4.47,3.57c-2.03-0.26-3.52-2.03-3.52-4.07c0-0.17,0.02-0.35,0.04-0.52l10.06-83.09l1.26-10.45
									c0.28-2.25,2.27-3.86,4.47-3.57C332.01,357.87,333.49,359.64,333.49,361.68z"/>
								<path style="fill:#326894;" d="M333.49,361.68c0,0.17-0.02,0.35-0.04,0.52l-1.14,9.44h-8.07l1.26-10.45
									c0.28-2.25,2.27-3.86,4.47-3.57C332.01,357.87,333.49,359.64,333.49,361.68z"/>
							</g>
							<g>
								<path style="fill:#4D8AB3;" d="M362.73,360.97v94.26c0,2.28-1.79,4.11-4,4.11c-1.1,0-2.1-0.46-2.83-1.21
									c-0.72-0.74-1.17-1.76-1.17-2.91v-94.26c0-2.28,1.8-4.11,4-4.11c1.11,0,2.11,0.46,2.83,1.21S362.73,359.84,362.73,360.97z"
									/>
								<path style="fill:#326894;" d="M361.55,358.07c0.73,0.74,1.17,1.77,1.17,2.91v10.66h-8.01v-10.66c0-2.28,1.8-4.11,4-4.11
									C359.83,356.86,360.83,357.32,361.55,358.07z"/>
							</g>
							<g>
								<path style="fill:#4D8AB3;" d="M402.99,455.23c0,2.06-1.48,3.82-3.51,4.08c-2.2,0.28-4.2-1.32-4.47-3.57l-10.19-84.11
									l-1.14-9.44c-0.02-0.17-0.04-0.35-0.04-0.52c0-2.04,1.49-3.8,3.52-4.07c2.2-0.28,4.19,1.32,4.47,3.57l1.26,10.45
									l10.06,83.09C402.98,454.9,402.99,455.06,402.99,455.23z"/>
								<path style="fill:#326894;" d="M392.9,371.63h-8.07l-1.14-9.44c-0.02-0.17-0.04-0.35-0.04-0.52c0-2.04,1.49-3.8,3.52-4.07
									c2.2-0.28,4.19,1.32,4.47,3.57L392.9,371.63z"/>
							</g>
						</g>
						<g>
							<path style="fill:#994403;" d="M410.28,350.34v2.67c0,4.67-3.78,8.45-8.45,8.45h-75.64c-4.67,0-8.45-3.78-8.45-8.45v-2.67
								c0-4.67,3.78-8.45,8.45-8.45h75.64C406.5,341.88,410.28,345.67,410.28,350.34z"/>
							<path style="fill:#852E03;" d="M410.28,350.34v2.67c0,4.67-3.78,8.45-8.45,8.45h-68.66c-4.67,0-8.45-3.78-8.45-8.45v-2.67
								c0-4.67,3.78-8.45,8.45-8.45h68.66C406.5,341.88,410.28,345.67,410.28,350.34z"/>
						</g>
					</g>
					<g>
						<path style="fill:#732D02;" d="M331.29,181.92c-0.95,1.94-1.91,3.89-2.76,5.76c-0.58,3.34-0.24,6.76,0,10.15
							s0.38,6.84-0.57,10.11c-0.95,3.27-3.16,6.35-6.42,7.6c-2.12,0.81-4.65,0.87-6.29,2.41c-1.86,1.75-1.73,4.69-1.05,7.11
							c0.57,2.03,1.47,4.05,3.08,5.46c1.61,1.41,4.2,2.33,5.96,1.31c1.74-1.02,4.05-0.28,5.31,1.26c1.26,1.54,1.85,3.53,3.09,5.09
							c1.76,2.22,4.71,3.37,7.6,3.44c2.89,0.07,5.97-0.34,7.9-1.54c4.13-2.59,9.28-4.31,13.51-1.88c2.23,1.28,3.99,3.32,6.4,4.24
							c2.05,0.78,4.44,0.63,6.37-0.39c1.93-1.02,2.67-3.2,3.88-4.87c2.22-3.06,7.6-0.59,11.32-1.6c3.98-1.09,6.66-5.46,5.73-9.37
							c-0.93-3.91-5.26-5.3-9.12-5.88c-2.65-0.4-3.74-3.77-4.35-6.29c-0.61-2.53-0.5-5.16-0.39-7.76
							c0.23-5.29,2.64-17.63,1.11-19.29c-0.8-0.87-3.8-3.07-4.89-3.56c-5.02-2.29-10.04-4.59-15.06-6.88
							c-4.57-2.09-9.36-4.22-14.41-4.08C342.2,172.58,334.91,174.55,331.29,181.92z"/>
						<g>
							<path style="fill:#EBF5FF;" d="M348.69,229.55c0,0-22.28,3.52-24.64,11.41c-2.36,7.89,11.17,63.1,11.17,63.1l50.06-3.06
								c0,0,3.64-63.64-4.32-67.63C373,229.38,348.69,229.55,348.69,229.55z"/>
							<g>
								<path style="fill:#FBBD9A;" d="M368.12,231.74c0,0-3.25,11.07-9.15,13.49c-5.89,2.43-18.79-12.34-18.79-12.34
									c2.6-1.65,3.58-5.62,3.9-9.24c0.32-3.68-0.04-6.98-0.04-6.98l17.9,3.44c-0.46,5.54,1.17,8.45,2.88,9.98
									C366.44,231.55,368.12,231.74,368.12,231.74z"/>
								<path style="fill:#F0997F;" d="M364.82,230.1c-8.5,1.12-16.2-3.14-20.74-6.44c0.32-3.68-0.04-6.98-0.04-6.98l17.9,3.44
									C361.47,225.65,363.11,228.57,364.82,230.1z"/>
							</g>
						</g>
						<g>
							<g>
								<g>
									<path style="fill:#D43226;" d="M416.6,439.31c-1.93,3.21-35.43-17.44-35.43-21c0-2.32,4.37-5.68,7.41-7.72
										c1.63-1.1,2.87-1.83,2.87-1.83l7.82-3.59l3.52,1.89c5.13,8.84,10.03,18.05,12.48,24.46
										C416.73,435.3,417.32,438.12,416.6,439.31z"/>
									<path style="fill:#F0997F;" d="M415.28,431.51c-9.6,0.4-22.29-15.13-26.69-20.93c1.63-1.1,2.87-1.83,2.87-1.83l7.82-3.59
										l3.52,1.89C407.94,415.89,412.83,425.1,415.28,431.51z"/>
								</g>
								<path style="fill:#002A42;" d="M382.13,305.72c0,0,60.98,7.72,63.05,23.33c2.07,15.6-38.25,84.49-38.25,84.49l-14.5-3.78
									l18.92-61.58l-48.55-20.6l9.67-21.86H382.13L382.13,305.72z"/>
							</g>
							<g>
								<g>
									<path style="fill:#EB4A2A;" d="M401.78,441.09c-1.93,3.21-35.43-17.44-35.43-21c0-2.32,4.37-5.68,7.41-7.72
										c1.63-1.1,2.87-1.83,2.87-1.83l7.82-3.59l3.52,1.89c5.13,8.84,10.03,18.05,12.48,24.46
										C401.91,437.08,402.5,439.9,401.78,441.09z"/>
									<path style="fill:#FBBD9A;" d="M400.46,433.29c-9.6,0.4-22.29-15.13-26.69-20.93c1.63-1.1,2.87-1.83,2.87-1.83l7.82-3.59
										l3.52,1.89C393.12,417.67,398.01,426.88,400.46,433.29z"/>
								</g>
								<g>
									<path style="fill:#06384F;" d="M330.7,300.49c0,0-21.13,41.78,16.05,46.29c27.01,3.28,44.91,2.62,45.47,4.12
										c0.92,2.41-17.57,60.75-17.57,60.75l18.21,5.76c0,0,37.69-80.95,35.64-88c-1.69-5.8-53.7-14.65-53.7-14.65
										c4.38-2.08,7.6-9.65,7.13-19.41L330.7,300.49z"/>
									<g>
										<path style="fill:none;stroke:#27788F;stroke-linecap:round;stroke-miterlimit:10;" d="M336.56,296.87
											c0,0-12.12,26.67-2.42,37.49c11.43,12.75,61.42,8.64,64.9,13.15c2.79,3.61-19.31,62.58-19.31,62.58"/>
										
											<line style="fill:none;stroke:#27788F;stroke-linecap:round;stroke-miterlimit:10;" x1="376.12" y1="409.2" x2="393.74" y2="414.57"/>
									</g>
								</g>
							</g>
						</g>
						<g>
							<path style="fill:#F0997F;" d="M376.678,197.455c4.297-0.487,8.068,1.663,8.424,4.802c0.356,3.139-2.839,6.078-7.136,6.565
								c-4.297,0.487-8.068-1.663-8.424-4.802C369.187,200.881,372.382,197.942,376.678,197.455z"/>
							<g>
								<path style="fill:#FBBD9A;" d="M334.14,197.2c0-14.83,9.42-26.85,22.07-26.85s22.91,12.02,22.91,26.85
									s-6.47,27.59-18.38,28.05C348.74,225.71,334.14,212.02,334.14,197.2z"/>
								<path style="fill:#F0997F;" d="M335.37,200.64c6.36-2.95,11.6-8.23,13.95-14.68c3.29,3.71,8.09,5.81,12.96,6.72
									c4.87,0.91,9.87,0.74,14.55,0.61c1.52,1.29,2.58,3.11,2.94,5.07c0.53-4.4,0.06-8.93-1.37-13.13
									c-12.6-3.84-25.12-7.92-37.57-12.23C338.97,181.87,337.11,190.74,335.37,200.64z"/>
							</g>
							<g>
								<path style="fill:#8C4206;" d="M347.24,179.17c2.71,5.11,7.95,8.51,13.46,10.27c5.51,1.75,11.37,2.04,17.23,2.21
									c0.92,3.22,1.11,6.99,1.11,10.29c2.02-4.68,3.06-8.67,3.25-12.55c0.05-1.12,0.05-2.26,0.02-3.46
									c-0.29-8.16-3.67-12.8-8.2-16.28c-4.54-3.48-10.11-4.96-15.83-4.96c-5.65,0-9.24,1.28-11.39,3.51
									c-0.76,0.79-1.34,1.69-1.76,2.7C344.21,173.06,345.24,175.41,347.24,179.17z"/>
								<path style="fill:#8C4206;" d="M328.4,202.43c-0.19-7.25-0.65-19.66,2.27-25.59c1.91-3.88,5.52-7.11,9.81-7.69
									c4.29-0.57,9.03,2.08,10.02,6.29c-1.9,9.74-6.79,18.68-13.72,25.69C334.38,202.29,330.84,203.06,328.4,202.43z"/>
								<path style="fill:#A66317;" d="M346.88,168.21c8.29-2.24,17.57-0.28,24.42,4.92c5.31,4.03,9.12,9.86,10.99,16.27
									c0.05-1.12,0.05-2.26,0.02-3.46c-0.29-8.16-3.67-12.8-8.2-16.28c-4.54-3.48-10.11-4.96-15.83-4.96
									C352.62,164.7,349.03,165.98,346.88,168.21z"/>
							</g>
							<path style="fill:#FBBD9A;" d="M325.727,202.658c0.783-3.061,4.815-4.672,9.004-3.6c4.189,1.072,6.951,4.423,6.167,7.483
								c-0.783,3.061-4.815,4.672-9.004,3.6C327.704,209.069,324.943,205.718,325.727,202.658z"/>
							<g>
								<ellipse style="fill:#2F344D;" cx="357.06" cy="204.6" rx="1.19" ry="1.9"/>
								<ellipse style="fill:#2F344D;" cx="373.61" cy="204.61" rx="1.19" ry="1.9"/>
								<path style="fill:none;stroke:#8C4206;stroke-width:2;stroke-linecap:round;stroke-miterlimit:10;" d="M370.13,195.75
									c2.04-0.69,4.94-0.54,6.95,0.84"/>
								<path style="fill:none;stroke:#8C4206;stroke-width:2;stroke-linecap:round;stroke-miterlimit:10;" d="M358.08,195.54
									c-2.23-0.99-6.32-0.78-8.25,1.42"/>
								<path style="fill:none;stroke:#D45E4E;stroke-width:2;stroke-linecap:round;stroke-miterlimit:10;" d="M365.53,203.45
									c0.54,2.02,0.14,4.53-0.51,6.11"/>
								<path style="fill:none;stroke:#D45E4E;stroke-width:2;stroke-linecap:round;stroke-miterlimit:10;" d="M364.1,215.44
									c-2.64,0.52-7.42-0.99-8.72-3.19"/>
							</g>
						</g>
						<g>
							<g>
								<path style="fill:#FBBD9A;" d="M373.61,238.48l8.93-5.39c0,0,7.53,0.64,12.63,10.01c5.07,9.32,14.62,39.45,17.63,40.78
									c3.01,1.33,39.7,1.8,39.7,1.8l0.5,10.75c0,0-44.94,7.13-50.3,4.18c-5.36-2.96-22.71-37.7-22.71-37.7L373.61,238.48z"/>
								<path style="fill:#DE3B26;" d="M373.06,237.27l1.72-6.02c0,0,9.86,0.42,14.9,4.37c5.04,3.95,9.17,14.69,9.17,14.69
									l-12.82,20.7L373.06,237.27z"/>
								<path style="fill:#163649;" d="M388.27,278.78c0,0,13.77-11.89,15.89-14.86c1.05-1.47,8.5,15.84,7.24,17.96
									c-2.01,3.38-14.56,11.5-15.26,11.03C395.44,292.44,388.27,278.78,388.27,278.78z"/>
								<path style="fill:#B82621;" d="M384.66,267.95c4.15-6.59,8.3-13.17,12.44-19.76c0.23-0.36,0.47-0.74,0.83-0.98
									c1.03-0.69,2.53,0.16,2.95,1.32c0.43,1.17,0.12,2.46-0.2,3.66c1.33-0.21,2.53,1.09,2.69,2.42c0.17,1.34-0.41,2.65-1.04,3.84
									c-3.84,7.27-10.28,13.12-17.88,16.25C384.1,272.44,383.41,269.93,384.66,267.95z"/>
								<g>
									<path style="fill:#FBBD9A;" d="M446.83,287.36c5.14-3.61,15.08-10.77,15.83-11.11c0.88-0.4,6.92-0.43,10.21,0.56
										c3.29,0.99,6.35,3.26,7.54,6.5c0.33,0.91,0.42,2.12-0.38,2.65c-0.52,0.35-1.24,0.23-1.78-0.09s-0.94-0.83-1.37-1.29
										c-2.2-2.39-4.19-3.33-7.8-3.53c4.28,0.65,7,3.29,8.28,7.45c0.25,0.83,0.35,1.88-0.32,2.42c-0.53,0.42-1.33,0.31-1.9-0.06
										c-0.57-0.37-0.96-0.95-1.39-1.48c-1.57-2-3.67-3.57-6.02-4.51c3.27,1.39,5.72,4.58,6.24,8.12
										c0.08,0.52,0.11,1.07-0.09,1.55c-0.2,0.48-0.71,0.87-1.22,0.78c-0.4-0.07-0.69-0.39-0.96-0.69
										c-1.78-2.01-3.18-4.15-5.55-5.59c2.16,2.88,3.98,7.56,3.53,8.78c-0.14,0.37-1.06,1.01-2.09-0.01
										c-1.17-1.17-1.99-3.17-3.81-5.4c-3.11,3.47-8.14,5.08-12.67,4.06C449.64,293.39,448.2,290.3,446.83,287.36z"/>
									<path style="fill:#FBBD9A;stroke:#D45E4E;stroke-linecap:round;stroke-miterlimit:10;" d="M456.16,282.78
										c3.65-1.31,7.37-2.43,11.15-3.33c0.5-0.12,1.02-0.24,1.53-0.18s1.03,0.33,1.25,0.79c0.23,0.48,0.08,1.07-0.23,1.5
										c-0.31,0.43-0.76,0.74-1.22,1.02c-1.59,0.99-3.28,1.83-5.06,2.68c-0.35,2.68-2.32,5.07-4.88,5.92"/>
								</g>
							</g>
							<path style="fill:#EB4A2A;" d="M365.12,230.28c2.14,1.86,3.53,12.34,4.63,19c1.65,9.98,10.05,53.37,10.55,56.44
								c0.89,5.42,18.05,5.05,18.74,2.22c0.13-0.52-5.01-2.91-5.83-6.37c-0.73-3.1-6.43-63.51-9.18-66.69
								C380.4,230.68,364.43,229.68,365.12,230.28z"/>
						</g>
						<g>
							<path style="fill:#EB4A2A;" d="M341.57,230.28c1.79,0.64,7.41,12.58,10.08,23.51c5.58,22.83,2.26,56.73,0,61.21
								c-2.26,4.48-24.16,6.45-27.88,5.26c-2.16-0.69-4.51-69.03-3.02-77.61C321.75,236.93,341.03,230.09,341.57,230.28z"/>
							<path style="fill:#FBBD9A;" d="M374.38,306.62c4.62-1.69,17.99-5.21,19.84-5.02c1.86,0.19,3.79,0.86,4.96,2.42
								c0.75,1,1.12,2.27,1.47,3.5c0.57,2,1.14,4,1.71,6c0.2,0.7,0.4,1.43,0.3,2.15s-0.6,1.44-1.28,1.49
								c-0.96,0.08-1.56-1.07-1.91-2.04c-0.9-2.49-1.8-4.98-2.69-7.42c0.59,3.07,1.17,6.15,1.76,9.22c0.14,0.73,0.28,1.48,0.11,2.2
								c-0.17,0.72-0.73,1.39-1.42,1.38c-1.02-0.02-1.51-1.33-1.74-2.41c-0.51-2.4-1.03-4.81-1.82-7.19
								c1.06,3.38,1.22,7.08,0.44,10.55c-0.12,0.53-0.28,1.09-0.64,1.47c-0.36,0.38-1,0.52-1.38,0.16
								c-0.29-0.27-0.35-0.73-0.39-1.14c-0.31-3.1-0.62-6.21-0.93-9.31c0.3,3.27,0.59,6.64-0.33,9.77c-0.16,0.56-0.38,1.12-0.79,1.5
								s-1.07,0.5-1.49,0.14c-0.41-0.35-0.46-0.98-0.48-1.54c-0.07-1.95-0.14-3.9-0.15-6.18c-1.72,2.01-4.1,3.35-6.61,3.74
								c-2.51,0.39-5.14-0.19-7.61-0.98C373.53,315.45,373.74,311.81,374.38,306.62z"/>
							<path style="fill:#EB4A2A;" d="M340.18,250.69c-1.4-6.47-7.2-16.96-11.93-14.79c-2.71,1.25-10.52,3.86-10.52,20.97
								c0,23.13,3.04,53.52,10.52,58.61c3.8,2.59,45.36,5.13,45.36,5.13l3.04-14.89c0,0-30.63-5.68-32.04-9.88
								C342.62,289.91,343.9,267.9,340.18,250.69z"/>
							<g>
								<path style="fill:none;stroke:#B82621;stroke-linecap:round;stroke-miterlimit:10;" d="M336.56,247.14
									c5.14,17.38,6.22,46.95,6.98,48.73c0.69,1.62,4.6,2.3,7.67,3.35"/>
								<path style="fill:none;stroke:#B82621;stroke-linecap:round;stroke-miterlimit:10;" d="M342.43,318.13
									c-5.7-0.57-12.78-1.68-14.36-2.86c-1.86-1.39-4.13-8.19-5.73-12.83"/>
								<path style="fill:none;stroke:#B82621;stroke-linecap:round;stroke-miterlimit:10;" d="M341.6,275.89
									c2.05-2.57,2.89-6.83,3.06-12.02"/>
							</g>
						</g>
					</g>
				</g>
				<g>
					<g>
						<g>
							<g>
								<rect x="493.36" y="423.32" style="fill:#326894;" width="73.67" height="6.67"/>
								<g>
									<path style="fill:#4D8AB3;" d="M505.98,361.55c0,0.17-0.02,0.34-0.04,0.51l-1.14,9.19l-10.19,81.91
										c-0.27,2.2-2.27,3.76-4.47,3.48c-2.03-0.26-3.52-1.98-3.52-3.96c0-0.17,0.02-0.34,0.04-0.51l10.06-80.93l1.26-10.18
										c0.28-2.19,2.27-3.76,4.47-3.48C504.49,357.85,505.98,359.57,505.98,361.55z"/>
									<path style="fill:#326894;" d="M505.98,361.55c0,0.17-0.02,0.34-0.04,0.51l-1.14,9.19h-8.07l1.26-10.18
										c0.28-2.19,2.27-3.76,4.47-3.48C504.49,357.85,505.98,359.57,505.98,361.55z"/>
								</g>
								<g>
									<path style="fill:#4D8AB3;" d="M535.21,360.86v91.8c0,2.22-1.79,4-4,4c-1.1,0-2.1-0.44-2.83-1.17
										c-0.72-0.72-1.17-1.72-1.17-2.83v-91.8c0-2.22,1.8-4,4-4c1.11,0,2.11,0.44,2.83,1.17
										C534.77,358.76,535.21,359.76,535.21,360.86z"/>
									<path style="fill:#326894;" d="M534.04,358.03c0.73,0.72,1.17,1.73,1.17,2.83v10.39h-8.01v-10.39c0-2.22,1.8-4,4-4
										C532.32,356.86,533.32,357.31,534.04,358.03z"/>
								</g>
								<g>
									<path style="fill:#4D8AB3;" d="M575.48,452.67c0,2-1.48,3.72-3.51,3.98c-2.2,0.28-4.2-1.28-4.47-3.48l-10.19-81.91
										l-1.14-9.19c-0.02-0.17-0.04-0.34-0.04-0.51c0-1.98,1.49-3.7,3.52-3.96c2.2-0.28,4.19,1.29,4.47,3.48l1.26,10.18
										l10.06,80.93C575.47,452.35,575.48,452.51,575.48,452.67z"/>
									<path style="fill:#326894;" d="M565.39,371.25h-8.07l-1.14-9.19c-0.02-0.17-0.04-0.34-0.04-0.51c0-1.98,1.49-3.7,3.52-3.96
										c2.2-0.28,4.19,1.29,4.47,3.48L565.39,371.25z"/>
								</g>
							</g>
							<g>
								<path style="fill:#994403;" d="M582.77,350.34v2.67c0,4.67-3.78,8.45-8.45,8.45h-75.64c-4.67,0-8.45-3.78-8.45-8.45v-2.67
									c0-4.67,3.78-8.45,8.45-8.45h75.64C578.99,341.88,582.77,345.67,582.77,350.34z"/>
								<path style="fill:#852E03;" d="M582.77,350.34v2.67c0,4.67-3.78,8.45-8.45,8.45h-68.65c-4.67,0-8.45-3.78-8.45-8.45v-2.67
									c0-4.67,3.78-8.45,8.45-8.45h68.65C578.99,341.88,582.77,345.67,582.77,350.34z"/>
							</g>
						</g>
						<g>
							<g>
								<g>
									<g>
										<path style="fill:#FDBD9B;" d="M483.7,229.55c1.52-2.49,0.04-5.73,0.52-8.61c0.14-0.8,0.46-1.61,1.1-2.12
											c0.64-0.51,1.65-0.58,2.23-0.01c0.71,0.69,0.47,1.85,0.46,2.84c-0.02,1.78,0.83,3.43,1.2,5.17
											c0.9,4.22-1.34,7.69-3.48,11.33c-2.69,1.86-6.31,3.17-8.57,3.39c-1.42,0.14-8.69-3.87-11.53-12.49
											c-1.43-4.32-1.26-6.11-0.78-6.7c0.48-0.59,1.42-0.87,2.03-0.41c0.37,0.27,0.54,0.73,0.69,1.16
											c0.91,2.59,1.81,5.18,2.7,7.87c-3.51-3.28-5.47-8.15-5.19-12.95c0.05-0.92,0.33-2.03,1.21-2.3
											c0.56-0.18,1.19,0.08,1.61,0.5c0.42,0.42,0.68,0.96,0.93,1.5c1.26,2.73,2.53,5.45,4.3,8.69
											c-3.21-3.04-4.58-7.88-3.44-12.15c0.19-0.72,0.62-1.56,1.37-1.57c0.76-0.01,1.21,0.83,1.48,1.55
											c1.28,3.43,2.56,6.87,3.84,10.3c-1.83-2.85-2.61-6.36-2.16-9.72c0.16-1.22,0.78-2.69,2.02-2.74
											c0.7-0.03,1.35,0.45,1.72,1.05c0.37,0.6,0.52,1.3,0.69,1.99C479.61,219.04,481.35,222.76,483.7,229.55z"/>
										<path style="fill:none;stroke:#B0514A;stroke-width:0.5;stroke-linecap:round;stroke-miterlimit:10;" d="M465.62,222.03
											c1.14-0.31,1.94,0.09,2.38,1.74c0.62,2.33,2.27,7.73,3.97,8.93"/>
									</g>
									<polygon style="fill:#FDBD9B;" points="486.09,236.02 490.28,245.79 479.2,252.5 474.27,239.46 									"/>
								</g>
								<g>
									<g>
										<path style="fill:#316382;" d="M485.63,224.52c-0.8-4.47-4.17-7.74-8.02-8.15l-0.06-0.31c0,0-2.01,0.36-2.68,0.51
											c-4.38,0.98-7.09,5.89-6.19,10.97c0.91,5.08,5.15,8.74,9.6,8.15c0.68-0.09,2.69-0.45,2.69-0.45l-0.06-0.31
											C484.39,233.23,486.43,229,485.63,224.52z"/>
									</g>
									<path style="fill:#407C91;" d="M477.385,216.09c4.676-0.834,9.233,2.787,10.179,8.089s-2.079,10.275-6.755,11.109
										c-4.676,0.834-9.233-2.787-10.179-8.089C469.685,221.898,472.709,216.924,477.385,216.09z"/>
									<g>
										<path style="fill:#EBF5FF;" d="M485.6,224.53c-0.73-4.07-4.24-6.86-7.84-6.22c-0.06,0.01-0.13,0.02-0.19,0.04
											c-3.49,0.73-5.73,4.5-5.01,8.5c0.72,4.01,4.11,6.77,7.65,6.25c0.06,0,0.13-0.02,0.19-0.03
											C483.99,232.44,486.33,228.61,485.6,224.53z"/>
									</g>
								</g>
							</g>
							<path style="fill:#FFFFFF;" d="M520.08,233.41l-6.82-5.19c0,0-4.45,2.52-6.82,7.79c-2.37,5.27-5.51,22.86-5.51,22.86
								l-12.74-21.16l-16.23,11.52c0,0,18,45.56,28.84,46.11c10.84,0.55,18.47-9.49,18.47-9.49L520.08,233.41z"/>
						</g>
						<g>
							<g>
								<polygon style="fill:#FBBD9A;" points="466.32,430.29 468.39,443.34 476.93,446.81 486.74,442.12 484.96,429.26 								"/>
								<g>
									<path style="fill:#502202;" d="M492.26,459.35l-44.27-0.64c0,0-0.3-0.92-0.42-2.25c-0.18-2.09,0.11-5.16,2.74-7.22
										c3.72-2.89,9.63-3.29,13.47-4.78c2.3-0.89,3.69-3.16,3.69-3.16l6.3,0.36c0,0,0.52,3.51,2.86,3.3c2.34-0.21,10.07-4,10.07-4
										c4,6.84,5.17,12.36,5.49,15.5C492.37,458.31,492.26,459.35,492.26,459.35z"/>
									<path style="fill:#855321;" d="M492.26,459.35l-44.27-0.64c0,0-0.3-0.92-0.42-2.25h44.61
										C492.37,458.31,492.26,459.35,492.26,459.35z"/>
								</g>
							</g>
							<g>
								<g>
									<polygon style="fill:#FBBD9A;" points="519.26,430.29 521.33,443.34 529.87,446.81 539.68,442.12 537.9,429.26 									
										"/>
									<g>
										<path style="fill:#502202;" d="M545.2,459.35l-44.27-0.64c0,0-0.3-0.92-0.42-2.25c-0.18-2.09,0.11-5.16,2.74-7.22
											c3.72-2.89,9.63-3.29,13.47-4.78c2.3-0.89,3.69-3.16,3.69-3.16l6.3,0.36c0,0,0.52,3.51,2.86,3.3
											c2.34-0.21,10.07-4,10.07-4c4,6.84,5.17,12.36,5.49,15.5C545.31,458.31,545.2,459.35,545.2,459.35z"/>
										<path style="fill:#855321;" d="M545.2,459.35l-44.27-0.64c0,0-0.3-0.92-0.42-2.25h44.61
											C545.31,458.31,545.2,459.35,545.2,459.35z"/>
									</g>
								</g>
								<g>
									<path style="fill:#112C45;" d="M516.66,301.29l-7.25,11.75c0,0-41.51,6.32-48.23,16.49c-6.2,9.38,2.2,104.46,2.2,104.46
										h28.51c0,0-2.18-70.23,0-76.73c2.18-6.5,67.55-6.13,71.3-14.95s5-39.77,5-39.77"/>
									<path style="fill:#163A4A;" d="M569.35,314.85c0,0,1.61,25.45-6.75,31.54c-7.26,5.29-25.72,6.67-25.72,6.67l3.56,79.16
										L513.18,434c0,0-13.54-92.39-12.9-101.25c0.64-8.86,26.86-15.27,25.07-16.53c0,0-20.21-6.86-12.72-14.4
										c0.17-0.17,0.36-0.35,0.55-0.52c1.74-1.54,23.03,0.05,23.03,0.05l19.63-1.8l7.77,8.81L569.35,314.85z"/>
								</g>
							</g>
						</g>
						<path style="fill:#112C45;" d="M568.34,322.91c-0.17,1.25-0.36,2.59-0.56,3.95c-3.36-4.27-8.79-10.52-13.58-13.15
							c-9.93-5.46-41.67-9.19-41.67-9.19l0.12-2.71c0.17-0.17,0.36-0.35,0.55-0.52c1.74-1.54,23.03,0.05,23.03,0.05l19.63-1.8
							l7.77,8.81L568.34,322.91z"/>
						<g>
							<g>
								<path style="fill:#FDBD9B;" d="M555.19,220.65c0,0-11.69,15.1-18.97,14.33c-7.28-0.77-12.97-8.83-12.97-8.83
									s2.92-1.08,4.18-5.85c0.74-2.75,0.91-6.73-0.35-12.44l21.64-3.21c0,0-0.15,3.61,0.81,7.5
									C550.35,215.47,551.97,219.01,555.19,220.65z"/>
								<path style="fill:#F0997F;" d="M527.43,220.31c0.74-2.75,0.91-6.73-0.35-12.44l21.64-3.21c0,0-0.15,3.61,0.81,7.5
									C543.69,217.07,535.65,220.03,527.43,220.31z"/>
							</g>
							<g>
								<g>
									<path style="fill:#F0997F;" d="M507.2,195.061c0.332-2.925,3.848-4.928,7.853-4.474c4.006,0.454,6.985,3.193,6.653,6.118
										c-0.331,2.925-3.848,4.928-7.853,4.474C509.847,200.724,506.868,197.985,507.2,195.061z"/>
									<g>
										<path style="fill:#4B8394;" d="M515.42,195.84v-0.08c0-0.96-0.78-1.74-1.74-1.74h-0.97c-0.96,0-1.74,0.78-1.74,1.74v0.08
											c0,0.96,0.78,1.74,1.74,1.74h0.97C514.64,197.58,515.42,196.8,515.42,195.84z"/>
										<rect x="510.97" y="195.8" style="fill:#4B8394;" width="1.46" height="4"/>
									</g>
								</g>
								<g>
									<path style="fill:#FDBD9B;" d="M556.05,187.49c0-13.82-9.56-25.03-21.36-25.03s-21.36,7.38-21.36,25.03
										c0,13.82,5.36,25.81,18.06,26.65C543.16,214.91,556.05,201.32,556.05,187.49z"/>
									<path style="fill:#F0997F;" d="M553.53,194.03c-3.91-3.76-6.81-8.56-8.23-13.91c-1.99,0.64-4.28,0.24-5.73-0.87
										c-4.34,1.76-9.48,1.43-13.42-0.77c-3.08,1.44-6.83,1.37-9.95-0.31c-1.5,2.04-2.62,4.35-3.31,6.79
										c0.3-4.76,0.61-9.52,0.92-14.29c11.27-1.59,22.6-2.7,33.96-3.32c0.64-0.04,1.32-0.06,1.9,0.23
										c0.85,0.44,1.22,1.44,1.5,2.36C553.57,177.84,554.79,186.1,553.53,194.03z"/>
								</g>
								<g>
									<path style="fill:#502202;" d="M558.96,169.14c-0.47,7.1-0.93,16.26-1.4,23.27c-0.66,2.41-2.73,2.32-5.54,3.22
										c-2.61-5.82-4.21-12.08-5.18-18.96c-2.73,0.72-5.69,0.52-8.48-0.56c-4.18,1.61-8.92,1.69-13.21-0.03
										c-3.24,1.07-6.77,1.28-9.82,0.18c-1.15,3.49-1.71,8.79-2.01,12.51c-0.4-3.41-1.72-13.96-2.05-21.19
										c-0.14-3.1-0.11-5.59,0.25-6.65c1.34-3.93,5.68-2.66,6.84-1.31c0.79-1.82,2.48-3.23,4.41-3.68s4.07,0.07,5.84,1.39
										c1.21-2.27,3.71-3.79,6.27-3.85c2.57-0.04,5.12,1.39,6.01,3.84c1.19-0.66,2.44-1.26,3.77-1.52
										c1.34-0.25,2.79-0.12,3.94,0.61c0.55,0.35,1.02,0.85,1.38,1.47c0.39,0.65,0.65,1.42,0.77,2.25
										c1.08-1.51,3.36-1.79,4.99-0.93c1.64,0.86,2.65,2.61,3.06,4.42C559.21,165.42,559.09,167.3,558.96,169.14z"/>
									<path style="fill:#6B4019;" d="M549.98,157.88c-1.42-0.62-3.03-0.78-4.54-0.44c-1.9,0.43-3.61,1.65-4.56,3.5
										c-0.89-2.39-3.42-4.06-5.97-3.94c-2.55,0.13-4.91,2.03-6.08,5.01c-1.37-1.62-3.59-2.5-5.7-2.25s-4.07,1.6-5,3.72
										c-0.73-0.86-2.05-1.02-3.11-0.63c-1.05,0.4-1.88,1.26-2.5,2.2c-0.53,0.79-0.93,1.64-1.26,2.52
										c-0.14-3.1-0.11-5.59,0.25-6.65c1.34-3.93,5.68-2.66,6.84-1.31c0.79-1.82,2.48-3.23,4.41-3.68
										c1.93-0.45,4.07,0.07,5.84,1.39c1.21-2.27,3.71-3.79,6.27-3.85c2.57-0.04,5.12,1.39,6.01,3.84
										c1.19-0.66,2.44-1.26,3.77-1.52c1.34-0.25,2.79-0.12,3.94,0.61C549.15,156.76,549.62,157.26,549.98,157.88z"/>
								</g>
								<g>
									<path style="fill:none;stroke:#502202;stroke-width:2;stroke-linecap:round;stroke-miterlimit:10;" d="M521.99,186.43
										c-1.84-0.44-3.86-0.07-5.43,0.99"/>
									<path style="fill:none;stroke:#502202;stroke-width:2;stroke-linecap:round;stroke-miterlimit:10;" d="M536.1,186.79
										c2-0.87,4.44-0.63,6.24,0.61"/>
									<path style="fill:none;stroke:#B0514A;stroke-width:2;stroke-linecap:round;stroke-miterlimit:10;" d="M527.54,194.43
										c0.05,1.98,0.25,3.95,0.58,5.9"/>
									<path style="fill:none;stroke:#B0514A;stroke-width:2;stroke-linecap:round;stroke-miterlimit:10;" d="M530.33,205.83
										c2.4,0.09,4.83-0.81,6.59-2.44"/>
									<path style="fill:#2D3A5E;" d="M536.876,193.992c0.604-0.106,1.206,0.447,1.345,1.235c0.139,0.789-0.238,1.514-0.841,1.621
										c-0.604,0.106-1.206-0.447-1.345-1.235C535.896,194.824,536.273,194.098,536.876,193.992z"/>
									<path style="fill:#2D3A5E;" d="M520.135,194.221c0.604-0.106,1.206,0.447,1.345,1.235c0.139,0.789-0.238,1.514-0.841,1.621
										c-0.604,0.107-1.206-0.447-1.345-1.235C519.155,195.053,519.531,194.327,520.135,194.221z"/>
								</g>
								<g>
									<path style="fill:#FDBD9B;" d="M554.207,190.585c3.994-0.551,7.557,1.367,7.959,4.283s-2.509,5.726-6.503,6.277
										c-3.994,0.551-7.557-1.367-7.959-4.283S550.213,191.135,554.207,190.585z"/>
									<g>
										<path style="fill:#4B8394;" d="M553.98,195.84v-0.08c0-0.96,0.78-1.74,1.74-1.74h0.97c0.96,0,1.74,0.78,1.74,1.74v0.08
											c0,0.96-0.78,1.74-1.74,1.74h-0.97C554.76,197.58,553.98,196.8,553.98,195.84z"/>
										<rect x="556.97" y="195.8" style="fill:#4B8394;" width="1.46" height="4"/>
									</g>
								</g>
							</g>
						</g>
						<g>
							<path style="fill:#69C5C9;" d="M552.53,217.34c0,0-11.85,7.16-13.91,9.73c-2.06,2.58-2.69,6.1-2.69,6.1s-2.84-5.99-3.48-6.49
								s-5.61-5.21-5.61-5.21l-5.83,4.42l-7.81,4.06l0.33,75.02l52.82,3.58l1.36-81.41L552.53,217.34z"/>
							<path style="fill:none;stroke:#3E7C8A;stroke-width:0.5;stroke-linecap:round;stroke-miterlimit:10;" d="M535.87,233.61
								c-2.5,21.04,1.84,57.81-5.21,72.09"/>
							<path style="fill:#9BEBE7;" d="M536.89,230.05c0,0,0.89-3.32,2.94-4.96s12.62-7.86,12.9-7.93c0.28-0.07,5.47,3.55,5.47,3.55
								l-7.84,11.13c0,0-8.04-5.65-9.92-5.17C538.64,227.14,536.89,230.05,536.89,230.05z"/>
							<path style="fill:#9BEBE7;" d="M534.43,230.06c0,0-0.61-2.34-1.68-3.66c-1.24-1.53-5.34-5.95-5.76-5.92
								c-0.42,0.02-4.58,2.52-5.32,4.03c-0.74,1.51-0.32,8.65-0.32,8.65s7.02-6.68,9.76-5.92
								C532.93,227.75,534.43,230.06,534.43,230.06z"/>
						</g>
						<g>
							<path style="fill:#FFFFFF;" d="M557.07,219.41c0,0-9.17,8.62-10.55,17.37s-0.85,54.79,7.64,70.11
								c7.36,13.29,8.06,55.62,8.06,75.27l25.76-8.88c0,0-0.11-35.25-8.43-67.89c-6.45-25.3-0.26-71.53-3.95-76.05
								C573.03,226.18,557.07,219.41,557.07,219.41z"/>
							<path style="fill:#DAE8F7;" d="M546.2,268.54c0,0-2.13-24.32-0.07-32.15s8.02-17.78,9.63-18.13
								c2.66-0.57,8.61,4.04,8.61,4.04s-4.82,8.34-6.24,20.99c-0.13,1.14-9.58,4.63-9.58,4.63s7.38,5.4,7.28,5.93
								C555.72,254.4,546.2,268.54,546.2,268.54z"/>
						</g>
						<g>
							<g>
								<ellipse style="fill:#407C91;" cx="529.29" cy="309.98" rx="10.01" ry="6.23"/>
								<path style="fill:#FBBD9A;" d="M543.01,301.82c-3.4-0.45-6.8-0.9-10.2-1.35c-0.91-0.12-1.89-0.23-2.72,0.16
									c-1.15,0.54-1.68,1.86-1.78,3.22c1.7,0.15,3.4,0.29,5.12,0.57c-2.08,2.86-4.63,5.38-7.5,7.45
									c-0.64,0.46-1.31,0.91-1.79,1.53c-0.49,0.62-0.76,1.46-0.51,2.21c0.26,0.74,1,1.24,1.77,1.39c0.77,0.15,1.56,0.02,2.48,0.07
									c-0.28,1.13,0.29,2.4,1.31,2.95c1.02,0.55,2.4,0.32,3.4-0.44c0.52,0.98,1.53,1.69,2.63,1.85c1.1,0.16,2.27-0.24,3.23-0.51
									c0.8,0.93,2.03,1.48,3.25,1.46c1.23-0.02,2.43-0.61,3.42-1.49c2.95-2.62,5.3-5.92,6.81-9.57
									C548.7,308.42,545.7,305.28,543.01,301.82z"/>
							</g>
							<g>
								<path style="fill:#FFFFFF;" d="M559.49,238.61c-0.25-4.83,2.2-13.92,5.68-14.87c5.42-1.47,14.63,6.67,17.05,13.15
									c2.42,6.48,9.73,46.19,7.68,51.6c-2.81,7.38-39.92,27.23-39.92,27.23l-11.5-16.81c0,0,25.73-13.96,27.26-18.4
									C566.69,277.73,560.08,249.94,559.49,238.61z"/>
								<path style="fill:none;stroke:#B8C8E3;stroke-linecap:round;stroke-miterlimit:10;" d="M571.94,230.29
									c0,0-4.15,5.43-4.15,15.21s2.4,32.94,1.84,33.79c-0.55,0.85-18.69,12.61-18.69,12.61"/>
								<path style="fill:none;stroke:#B8C8E3;stroke-linecap:round;stroke-miterlimit:10;" d="M568.09,260.25
									c-2.74-3.25-4.63-7.04-5.48-11.01"/>
								<path style="fill:none;stroke:#B8C8E3;stroke-linecap:round;stroke-miterlimit:10;" d="M558.24,311.73
									c5.89-3.21,14.41-8.22,19.54-12.31"/>
							</g>
						</g>
						<g>
							<path style="fill:#FFFFFF;" d="M525.36,221.12c0,0-1.56,6-1.56,16.43c0,17.5-2.28,66.16-11.49,73.35
								c-7.24,5.65-16.31,5.29-20.43,5.29c0,0,8.57-4.56,11.77-9.85c3.56-5.88,4.16-24.57,4.63-34.31
								c0.5-10.32,1.43-38.76,2.61-41.24C513.45,225.44,525.36,221.12,525.36,221.12z"/>
							<path style="fill:#DAE8F7;" d="M522.37,270.03c0,0,2.09-16.47,2.09-27.92c0-12.82,2.11-21.64,2.11-21.64
								s-7.28,2.31-8.08,3.49c-0.8,1.18-4.57,7.95-6.5,20.78c-0.32,2.12,8.28,3.87,8.28,3.87s-6.63,5.15-6.63,6.44
								C513.65,257.55,522.37,270.03,522.37,270.03z"/>
							<g>
								<path style="fill:none;stroke:#B8C8E3;stroke-linecap:round;stroke-miterlimit:10;" d="M510.49,235.88
									c0,27.9-2.53,50.22-3.75,57.97"/>
								<path style="fill:none;stroke:#B8C8E3;stroke-linecap:round;stroke-miterlimit:10;" d="M506.53,245.88
									c0.72,4,2.46,7.95,3.53,9.16"/>
							</g>
						</g>
					</g>
					<g>
						<path style="fill:none;stroke:#163649;stroke-miterlimit:10;" d="M511.67,199.74c0,0,1.37,32.19,20.67,33.42
							c16.29,1.04,25.33-18.98,25.33-33.47"/>
						<g>
							<path style="fill:none;stroke:#163649;stroke-linecap:round;stroke-miterlimit:10;" d="M533.56,233.56
								c0,0-11.87,43.38-44.8,51.22c-40.3,9.6-79.79-1.19-79.79-1.19"/>
							<path style="fill:none;stroke:#163649;stroke-linecap:round;stroke-miterlimit:10;" d="M480.34,234.79
								c0,0,4.55,26.3-15.84,39.92c-18.06,12.07-55.53,8.34-55.53,8.34"/>
							<path style="fill:none;stroke:#163649;stroke-linecap:round;stroke-miterlimit:10;" d="M519.96,309.82
								c0,0-73.86,0.15-111.5-26.23"/>
						</g>
					</g>
				</g>
			</g>
			<g>
				<path style="fill:#381B07;" d="M674.59,124.65c-0.45-7.88,5.27-15.68,12.92-17.61c7.65-1.93,16.39,2.22,19.73,9.37
					c2.86,6.12,1.88,13.29,0.5,19.91c-1.37,6.62-3.08,13.47-1.51,20.04c1.33,5.53,4.9,10.41,5.61,16.05
					c0.97,7.76-4.49,15.82-12.06,17.79c-4.28,1.11-9.81-0.26-11.17-4.47c-1.26-3.9,1.62-8.05,1.04-12.1
					c-0.49-3.4-3.26-5.92-5.54-8.48C675.71,155.69,675.59,142.06,674.59,124.65z"/>
				<g>
					<path style="fill:#DB8E62;" d="M601.16,224.26c-3.83-4.37-6.63-12.24-6.63-14.89c0-3.13-0.5-6.34,0.6-9.27
						c0.57-1.51,1.44-2.88,2.31-4.24c0.99-1.55,1.97-3.1,2.96-4.65c0.41-0.64,0.88-1.32,1.61-1.52c1.23-0.33,2.36,1.06,2.3,2.34
						c-0.07,1.27-0.91,2.35-2.36,3.48c0.55-2.33,1.73-4.51,3.37-6.25c0.43-0.46,1.01-0.92,1.63-0.78c1.01,0.24,0.98,1.68,0.71,2.68
						c-0.68,2.51-1.35,5.02-1.89,7.18c2.14,4.08,1.95,8.92,1.99,13.52c0.04,4.6,0.49,9.58,3.53,13.04
						C608.37,226.18,604.93,221.08,601.16,224.26z"/>
					<path style="fill:#DB8E62;" d="M600.72,223.72c0,0,10.15,34.68,17.82,35.39c9.28,0.87,16.82-7.71,16.82-7.71l6.06-31.06
						l-13.74-8.23L620.1,237l-10.82-12.23L600.72,223.72z"/>
					<path style="fill:#1D9FB3;" d="M646.43,225.52c-7.56-2.86-15.15-5.66-22.7-8.56c2.06-9.87,4.92-21.7,7.42-25.48
						c4.68-7.07,12.24-7.43,12.24-7.43l3.45,10.21l-0.41,31.05C646.43,225.31,646.43,225.39,646.43,225.52z"/>
					<g>
						<polygon style="fill:#B23F37;" points="639.46,245.61 617.36,188.48 590.26,195.51 615.34,259.12 						"/>
						<polygon style="fill:#EBF5FF;" points="635.78,242.47 615.87,191.62 593.77,197.61 615.54,253.25 						"/>
						<polygon style="fill:#678CA8;" points="608.77,190.24 610.15,193.93 601.48,196.34 599.93,192.57 						"/>
					</g>
				</g>
				<g>
					<g>
						<g>
							<g>
								<path style="fill:#136D94;" d="M626.4,452.11c0.08,3.75,39.41,2.48,41.18-0.61c1.15-2.02-0.97-7.1-2.59-10.39
									c-0.86-1.77-1.58-3.02-1.58-3.02l-5-7l-3.99-0.11c-8.85,5.11-17.67,10.67-22.99,15.02
									C628.29,448.58,626.37,450.72,626.4,452.11z"/>
								<path style="fill:#DB8E62;" d="M631.43,446.01c8.13,5.12,26.86-2.04,33.56-4.89c-0.86-1.77-1.58-3.02-1.58-3.02l-5-7
									l-3.99-0.11C645.57,436.1,636.74,441.66,631.43,446.01z"/>
							</g>
							<polygon style="fill:#DB8E62;" points="643.5,415.56 644.89,430.89 645.39,436.39 645.74,440.17 661.65,438.5 661.78,435.83 
								661.78,435.82 661.91,433.02 662.79,414.9 662.88,413.08 653.19,414.32 							"/>
						</g>
						<polygon style="fill:#CF6E4A;" points="643.5,415.56 644.89,430.89 652.85,431.88 652.86,431.88 659.57,432.73 661.91,433.02 
							662.79,414.9 653.19,414.32 						"/>
					</g>
					<path style="fill:#1D9FB3;" d="M632.26,262.18c0,0-6.84,18.92-5.49,45.82c1.35,26.9,12.69,120.71,12.69,120.71l28.26-1.33
						l-4.84-121.1l-6.82-37.5"/>
				</g>
				<g>
					<g>
						<g>
							<g>
								<path style="fill:#136D94;" d="M697.11,451.73c2.49,2.8,31.6-23.68,30.95-27.17c-0.43-2.28-5.34-4.77-8.71-6.22
									c-1.8-0.78-3.16-1.27-3.16-1.27l-8.35-2.08l-3.11,2.5c-3.42,9.63-6.53,19.59-7.75,26.34
									C696.25,447.81,696.19,450.69,697.11,451.73z"/>
								<path style="fill:#DB8E62;" d="M696.98,443.82c9.51-1.38,19.12-18.98,22.37-25.49c-1.8-0.78-3.16-1.27-3.16-1.27l-8.35-2.08
									l-3.11,2.5C701.31,427.11,698.2,437.06,696.98,443.82z"/>
							</g>
							<polygon style="fill:#DB8E62;" points="686.42,412.82 693.03,419.29 701.36,427.44 704.08,430.09 715.11,418.51 
								713.47,416.38 708.7,410.2 699.56,398.36 							"/>
						</g>
						<polygon style="fill:#CF6E4A;" points="686.42,412.82 693.03,419.29 708.7,410.2 699.56,398.36 						"/>
					</g>
					<g>
						<path style="fill:#25B2C2;" d="M628.5,279.96c2.75,7.64,23.46,21.1,23.46,21.1s-0.2,53.33,0.57,66.77
							c0.77,13.44,28.62,57.32,28.62,57.32l26.1-23.17c0,0-20.23-33.83-21.62-41.78c-1.39-7.96,7.36-49.76,7.36-66.78
							c0-3.14-0.29-6.39-0.77-9.61c-1.04-7.1-2.97-14.04-4.65-19.19c-1.67-5.15-3.08-8.53-3.08-8.53s-14.18,2.06-28.34,6.02
							c-12.96,3.62-25.87,8.85-27.84,15.52C628.11,278.31,628.19,279.1,628.5,279.96z"/>
						<path style="fill:#1D9FB3;" d="M628.5,279.96c6.9,4.08,14.09,7.67,21.49,10.72c0.46-1.23,0.92-2.46,1.56-3.69
							c0.65,1.41,1.31,2.8,2.11,4.71c12.76-3.2,25.64-5.91,38.57-7.89c-1.04-7.1-2.97-14.04-4.65-19.19
							c-10.46-0.98-20.94-1.82-31.42-2.51c-12.96,3.62-25.87,8.85-27.84,15.52C628.11,278.31,628.19,279.1,628.5,279.96z"/>
					</g>
				</g>
				<path style="fill:#27B8C1;" d="M700.98,192.33c-0.99-6-23.7-13.71-31.42-13.01c-16.58,1.51-28.59,4.52-32.37,6.89
					c-3.78,2.37-7.23,24.51-7.23,30.68c0,7.3,2.51,21.63,1.84,27.41c-1.3,11.21-8.1,34.95-8.1,34.95l24.99,8.76l3.1-5.46l2.83,6.92
					l41.3-9.47c0,0-3.16-32.89-3.16-38.66C692.77,235.81,702.26,200.07,700.98,192.33z"/>
				<g>
					<path style="fill:none;stroke:#51DBDB;stroke-linecap:round;stroke-miterlimit:10;" d="M662.4,196.25
						c-8.3,43.23-8.76,55.61-10.65,85.98"/>
					<g>
						<circle style="fill:#136D94;" cx="663.5" cy="204.81" r="1.39"/>
						<circle style="fill:#136D94;" cx="660.02" cy="223.72" r="1.39"/>
						<circle style="fill:#136D94;" cx="657.34" cy="243.65" r="1.39"/>
						<circle style="fill:#136D94;" cx="655.95" cy="266.5" r="1.39"/>
					</g>
				</g>
				<g>
					<g>
						<g>
							<g>
								<g>
									<path style="fill:#136D94;" d="M614.2,223.01l4.14,0.33l0.32,0.03l27.76-7.29c1.9-1.01,2.22-2.57,1.77-3.84
										c-0.57-1.58-2.42-2.32-4.01-1.76l-26.48,9.36l-0.27,0.24L614.2,223.01z"/>
									<g>
										<path style="fill:#D68A5A;" d="M614.2,223.01l1.14,0.09l3,0.24c-0.09-0.07-0.19-0.14-0.27-0.23
											c-0.35-0.35-0.56-0.87-0.41-1.34c0.06-0.2,0.18-0.41,0.1-0.6c-0.04-0.09-0.12-0.15-0.18-0.22
											c-0.2-0.23-0.23-0.58-0.16-0.87l-2.37,2.16L614.2,223.01z"/>
										<path style="fill:#24151A;" d="M614.2,223.01l1.14,0.09c-0.12-0.13-0.2-0.28-0.25-0.45c-0.04-0.13-0.05-0.27-0.04-0.41
											L614.2,223.01z"/>
									</g>
								</g>
								<g>
									<path style="fill:#DB8E62;" d="M647,229.18c-2.73-5.06-5.45-10.12-8.36-15.19c-2.16-1.68-4.59-2.95-7.07-3.9
										c-2.96,0.96-5.74,2.73-8.03,5.11c-0.56,0.59-1.15,1.42-0.89,2.21c0.19,0.58,0.79,0.86,1.35,0.82
										c0.55-0.04,1.07-0.34,1.57-0.63c1.51-0.88,3.02-1.77,4.77-2.62c0.49,0.42,0.98,0.84,1.35,1.27
										c-1.02,0.01-2.04,0.03-3.26,0.38c-1.95,0.92-3.86,1.97-5.71,3.15c-0.52,0.33-1.09,0.77-1.15,1.43
										c-0.05,0.54,0.28,1.03,0.71,1.26c0.43,0.23,0.92,0.24,1.4,0.2c1.74-0.12,3.47-0.75,4.9-1.83c0.58,0.17,1.16,0.34,1.6,0.62
										c-0.75,0.14-1.5,0.28-2.2,0.63c-0.7,0.35-1.34,0.93-1.65,1.72c-0.31,0.79-0.2,1.79,0.21,2.62c-0.4,0.15-0.62,0.67-0.6,1.14
										c0.02,0.47,0.22,0.89,0.42,1.29c0.43,0.85,0.9,1.67,1.41,2.45c0.49,0.73,1.05,1.45,1.82,1.77
										c0.77,0.31,1.78,0.09,2.29-0.87c2.06,3.56,5.92,5.65,9.66,5.25C643.77,235.05,645.63,232.22,647,229.18z"/>
									<g>
										<path style="fill:none;stroke:#A8473E;stroke-width:0.5;stroke-linecap:round;stroke-miterlimit:10;" d="M635.1,216.83
											c-0.99-0.41-2.04-0.55-3.11-0.66"/>
										<path style="fill:none;stroke:#A8473E;stroke-width:0.5;stroke-linecap:round;stroke-miterlimit:10;" d="M633.09,221.2
											c-1-0.08-1.98-0.05-2.73,0.08"/>
										<path style="fill:none;stroke:#A8473E;stroke-width:0.5;stroke-linecap:round;stroke-miterlimit:10;" d="M626.68,226.12
											c1.39-0.77,3.69-1.21,5.27-1.01"/>
										<path style="fill:none;stroke:#A8473E;stroke-width:0.5;stroke-linecap:round;stroke-miterlimit:10;" d="M631.45,231.94
											c-0.49-0.79-0.92-2.09-1.11-3"/>
										<path style="fill:none;stroke:#A8473E;stroke-width:0.5;stroke-linecap:round;stroke-miterlimit:10;" d="M630.66,230.57
											c-0.63,0.08-1.29,0.19-1.8,0.14"/>
									</g>
								</g>
							</g>
						</g>
						<g>
							<path style="fill:#DB8E62;" d="M639.86,236.17c0,0,34.56,29.31,43.89,26.01c3.71-1.32,7.39-12.08,10.06-22.1
								c2.46-9.21,4.06-17.78,4.06-17.78l-19.58-8.27c0,0-1.31,8.88-2.63,16.1c-0.87,4.87-1.75,8.98-2.22,9.1
								c-2,0.56-27.37-10.73-27.37-10.73L639.86,236.17z"/>
							<path style="fill:#CF6E4A;" d="M675.66,230.14c4.67,3.06,12.01,7.57,18.14,9.95c2.46-9.21,4.06-17.78,4.06-17.78l-19.58-8.27
								C678.28,214.04,676.98,222.92,675.66,230.14z"/>
						</g>
					</g>
					<path style="fill:#32C9CF;" d="M697.86,232.73c-8.57-1.63-15.37-3.04-23.56-5.97c1.16-9.62,3.87-27.02,6.07-32.38
						c1.56-3.8,7.69-10.48,14.6-7.59c6.91,2.89,9.56,7.45,8.83,19.48C703.53,210.55,699.46,224.02,697.86,232.73z"/>
				</g>
				<g>
					<g>
						<g>
							<path style="fill:#DB8E62;" d="M656.08,183.7c0,0,2.01,9.1,5.89,11.76c3.88,2.66,18.57-13.7,18.57-13.7
								c-2.53-2.36-3.14-6.99-3.11-11.09c0.03-4.18,0.73-7.78,0.73-7.78l-17.9,5.17c0.18,4.42-0.18,7.61-0.74,9.9
								C658.3,182.93,656.08,183.7,656.08,183.7z"/>
							<path style="fill:#CF6E4A;" d="M659.53,177.96c8.25,1.75,14.56-3.5,17.9-7.29c0.03-4.18,0.73-7.78,0.73-7.78l-17.9,5.17
								C660.45,172.49,660.09,175.67,659.53,177.96z"/>
						</g>
						<g>
							<path style="fill:#136D94;" d="M662.63,195.78c-0.23-0.04,0.92-6.18,1.5-6.71c0.58-0.53,14.69-12.89,15.53-12.43
								c1.23,0.66,3.26,4.58,3.26,4.58s-2.9,3.93-8.37,8.37C670.79,192.64,664.79,196.15,662.63,195.78z"/>
							<path style="fill:#136D94;" d="M662.63,195.75c0.31-0.31-0.32-6.4-0.68-6.96c-1.17-1.85-3.15-6.67-3.15-9.95
								c0,0-3.56,1.35-4,2.13c-0.43,0.79,1.5,6.56,2.99,9.31C660.32,194.91,662.38,196,662.63,195.75z"/>
						</g>
					</g>
					<g>
						<g>
							
								<ellipse transform="matrix(0.1126 -0.9936 0.9936 0.1126 419.8328 778.2086)" style="fill:#CF6E4A;" cx="645.605" cy="154.056" rx="5.44" ry="7.45"/>
							<g>
								<path style="fill:#DB8E62;" d="M688.01,145.49c0-14.1-9.75-25.53-21.78-25.53c-12.03,0-21.78,11.43-21.78,25.53
									c0,14.1,6.01,28.12,18.2,27.62C674.66,172.61,688.01,159.59,688.01,145.49z"/>
								<path style="fill:#CF6E4A;" d="M683.18,151.54c-2.53-2.75-4.13-7.94-4.52-10.15c-2.42-0.7-5.35-3.02-6.82-6.15
									c-3.69,3.69-17.71,5.77-22.39,4.55c-3.33,4.11-3.43,6.15-4.61,11.4c-0.76-6.41-0.42-12.95,0.99-19.25
									c8.77-2.83,17.35-6.24,25.67-10.22c1.42-0.68,3.12-1.37,4.48-0.57c0.87,0.51,1.32,1.5,1.77,2.41
									c1.88,3.83,4.58,7.26,7.86,9.99c0.85,0.71,1.82,1.51,1.86,2.61c0.03,0.72-0.35,1.38-0.7,2.01
									C685.2,141.06,685.47,148.01,683.18,151.54z"/>
							</g>
							<g>
								<path style="fill:#412408;" d="M640.75,136.85c-0.07,5.34,4.28,16.43,4.28,16.43s0.03-9.13,4.19-15.06
									c8.61,0,18.15-0.4,23.43-5.3c1.53,3.88,4.16,6.14,7.33,7.2c-0.1,4.84,2.12,9.37,3.51,13.44c2.71-1.65,4.75-0.95,6.96-3.56
									c1.28-4.73,2.64-12.12,2.25-16.69c-0.32-3.68-1.32-7.4-3.32-10.49c-0.47-0.74-1.01-1.45-1.6-2.11
									c-3.08-3.41-7.94-5.4-12.39-4.29c-2.46-2.96-6.26-4.71-10.05-4.92c-3.8-0.21-7.57,0.98-10.88,2.87
									c-6.45,3.67-11.49,9.35-13.14,17.25C640.96,133.32,640.78,135.07,640.75,136.85z"/>
								<path style="fill:#664216;" d="M640.75,136.85c0.18-0.69,0.4-1.37,0.65-2.04c1.23-3.25,3.23-6.17,5.53-8.78
									c3.47-3.98,7.78-7.41,12.87-8.83c5.09-1.41,11-0.52,14.8,3.15c4.8-2.04,10.69-0.93,14.77,2.46
									c-0.47-0.74-1.01-1.45-1.6-2.11c-3.08-3.41-7.94-5.4-12.39-4.29c-2.46-2.96-6.26-4.71-10.05-4.92
									c-3.8-0.21-7.57,0.98-10.88,2.87c-6.45,3.67-11.49,9.35-13.14,17.25C640.96,133.32,640.78,135.07,640.75,136.85z"/>
							</g>
							<path style="fill:#DB8E62;" d="M686.683,148.876c3.986-1.02,7.822,0.512,8.567,3.423c0.745,2.911-1.882,6.097-5.868,7.118
								c-3.986,1.02-7.822-0.512-8.567-3.423C680.069,153.084,682.696,149.897,686.683,148.876z"/>
						</g>
						<g>
							<g>
								<ellipse style="fill:#411F00;" cx="667.71" cy="154.93" rx="0.95" ry="1.52"/>
								<ellipse style="fill:#411F00;" cx="650.26" cy="154.93" rx="0.95" ry="1.52"/>
								<path style="fill:none;stroke:#412408;stroke-width:2;stroke-linecap:round;stroke-miterlimit:10;" d="M653.06,145.72
									c-1.82-0.63-3.91-0.47-5.61,0.45"/>
								<path style="fill:none;stroke:#412408;stroke-width:2;stroke-linecap:round;stroke-miterlimit:10;" d="M666.23,146.51
									c2.04-0.89,4.53-0.64,6.36,0.62"/>
								<path style="fill:none;stroke:#A8473E;stroke-width:2;stroke-linecap:round;stroke-miterlimit:10;" d="M656.79,156.09
									c-0.16,0.98-0.15,3.32,0.02,4.27"/>
							</g>
							<path style="fill:none;stroke:#A8473E;stroke-width:2;stroke-linecap:round;stroke-miterlimit:10;" d="M657.86,164.58
								c2.65,1.05,5.42,0.48,6.85-1.69"/>
						</g>
					</g>
				</g>
			</g>
		</g>
		<g>
			<g>
				<circle style="fill:#FFA8B1;" cx="350.44" cy="96.3" r="36.69"/>
				<g>
					<path style="fill:#B82621;" d="M326.47,83.96c8.03-14.96,23.91,5.12,23.91,5.12s15.91-17.16,23.91-6.01
						c8.31,11.57-23.91,38.52-23.91,38.52S319.64,96.69,326.47,83.96z"/>
					<polyline style="fill:none;stroke:#FFFFFF;stroke-linecap:round;stroke-miterlimit:10;" points="323.82,100.75 334.95,100.87 
						338.41,87.33 345.54,113.07 351.18,81.89 357.31,109.97 360.97,89.61 364.89,100.29 377.06,100.62 					"/>
				</g>
			</g>
			<g>
				<circle style="fill:#FFA8B1;" cx="452" cy="153.48" r="37.5"/>
				<g>
					<path style="fill:#FFFFFF;" d="M472.01,155.14l-28.7,16.44c-5.46,3.13-12.42,1.24-15.54-4.21c-1.56-2.73-1.87-5.83-1.11-8.65
						c0.76-2.82,2.59-5.33,5.33-6.9l28.7-16.44c5.45-3.12,12.41-1.23,15.54,4.23c1.56,2.73,1.87,5.83,1.1,8.64
						C476.57,151.07,474.74,153.58,472.01,155.14z"/>
					<path style="fill:#B82621;" d="M472.01,155.14l-14.36,8.22l-11.32-19.76l14.36-8.22c5.45-3.12,12.41-1.23,15.54,4.23
						c1.56,2.73,1.87,5.83,1.1,8.64C476.57,151.07,474.74,153.58,472.01,155.14z"/>
				</g>
			</g>
			<g>
				<circle style="fill:#FFA8B1;" cx="547.37" cy="84.3" r="36.69"/>
				<g>
					<g>
						<path style="fill:#FFFFFF;" d="M566.07,65.89v25.15c0,6.13-3.11,11.87-8.3,15.25l-10.4,6.07l-9.54-6.19
							c-5.68-3.28-9.17-9.3-9.17-15.79V65.89l18.58-5.32l0.13,0.04L566.07,65.89z"/>
						<path style="fill:#F2E4E5;" d="M566.07,65.89v25.15c0,6.13-3.11,11.87-8.3,15.25l-10.4,6.07V60.61L566.07,65.89z"/>
					</g>
					<g>
						<rect x="543.05" y="72.25" style="fill:#B82621;" width="8.63" height="28.42"/>
						<rect x="533.151" y="82.148" style="fill:#B82621;" width="28.42" height="8.63"/>
					</g>
				</g>
			</g>
		</g>
	</g>
</g>
</svg>
